<?xml version="1.0" encoding="UTF-8"?>
<svg version="1.1" viewBox="-100 64 1400 1600" width="1600" height="1600" xmlns="http://www.w3.org/2000/svg">
<path transform="translate(640,336)" d="m0 0h2v2l5 2 9 10 7 6 8 11 4 6 3 6v2l13-4 4-1h9l3 3-1 6-10 5-5 2-6 1 5 8 3 9 3 5 3 10 3 6 1 6 14-1 5 2 1 5-4 4-9 3h-3l3 8 2 14 13-5h4 9l10 4 5 4 4 8 1 4v8l10-5 11 1 5 3 10 10 6-2 9-17 3-3 8-3 9 1 2-6 3-4v-2l-12-8 1-7 4-2 11 4 5 2 2-4 8-12 6-8 5-5 4-6h2v-4l-14-10-3-5 1-5h10l13 8 5 2 9-10 11-8 18-10 8-4h2l-1 4-4 6h-3v2h51l30 3 29 5 25 6 21 7 21 10 18 10 14 9 8 7 7 15 1 4v14l-2 17-3 29-4 15-5 10-7 8-11 8-9 4h-10l-6-2v9l-1 13 11 11 11 9 10 8 14 10 14 9 18 11 16 9 24 11 11 3 5 5 1 4-1 4 4 18 13 82 8 43 2 13v7l-4 6-9 5-4 1h-10l-11-4-8-4-1 5-14 30-16 35-10 24-1 3 4 2 5 5 11 14 10 18 7 18 3 14v14l-5 23-8 26-21 63-16 54-3 7-2 2h-10l-10 4-13 3h-19l-16-3-17-5-3 10-9 19-10 14-7 9-6 5-7 8-9 9-17 13-15 11-6 4-16 6-4 2-7 1-16-1-1-1-7-1-8-4-9-6-25-25-8-14-2-9-5 1h-17l-14-3-7-3-2-2-7-3-5-3-5-1v2h-25l-12-3-13-7-12-8v-2l-7 4-5 1h-12l-7-2-7-3-6-4v-2l-5 2-8 8-4 2h-9l-9-4-10-7h-7l-8 2h-20l-13-3-9-4-1 5-5 8-2 3h-2v2l-15 10-10 3-12 3-6 1h-18l-16-4-4-2-4 1-12 12-14 8-7 2h-16l-14-3-7-3v7l-5 9-5 5-6 3-11 1-7-2-10-4-3-4-4 2-5 3-9 1-2 13-6 12-9 6-9 3h-25l-7-3-8-6-7-8-9-15-6-14-2-6v-5l-11 2h-20l-16-4-7-3h-9l-4-5-20-67-16-48-10-31-4-18-1-2-7-2h-4l-9 4h-16l-10-7-6-10-2-5v-14l2-7-4 1-11-7-5-4-8-17-1-13 1-9 6-12 8-7 7-3v-8l-1-4 1-2-8 3-10 10-2 5-4 4-3 4-4 2-5-1-5-5-1-13-1-5 1-5-1-5v-12l1-5-1-5 1-1 1-19 1-1 1-9 6-12 5-2h4l-6-10-6-11-2-21 1-8 2-10-9 1h-4-6l-4 1-6-10 1-11 5-12 10-15 6-7 12-9 13-8 6-2 7 1 4 5 3 6v18l-1 1-1 12 6-1h5v-2l-4-1v-7l7-8 32-32v-8h-14l-5-5-5-3-4-12-9 1-1 1-11 1-1 1h-6l-4-2-4-1-8-5-4-7v-5h-12l-14-7-4-5v-2h-2l-4-7-2-7v-18l3-9 7-14 5-7 4-3-5-2-6-12-2-6v-19l2-4 2-6 2-4 1-4h2l2-5 5-8 7-8 8-7 9-6 4-2 7-1 1-1h8l5 1 7-10 9-7 12-6h4l-1-2v-16l3-7 2-6 4-4 3-5 7-1 6-2 21 1 5 3 7 1 7 3 11 3 3 3 7 1 2-6v-2l3-1 3-5 6-6 10-4 14-3 22 1 1 1 7 1 3 3 6 2 3 2 1-4 6-4 1-3 10-4 4-4 5 1 1-1 10-1 10 1 8 2v2l5 2 5 5 1 4 4-2 5-5 5-3 3-3 8-2 2-2h18l14 9 2 3 2 6 6-2h3 15l7 3 2 4 6 2 4-4-1-3-5-4-7-8-6-7-6-9-6-15-2-7 1-11 5-13 7-9 10-8 8-5 9-4 12-2 16 1 15 4 13 5 17 10 16 13 15 15 11 14 9 13 7 12 7 14 7 20 3 8 3 16 2 10 1 7v16l-1 4 11-4-1-10 4-16 6-15 7-11 4-5 9-6 7-1 8 4 4 4 1 3h2l-2-11-2-10v-4l-8 6-10-1-2-2 1-7 5-4 9-4-3-10-9-22-4-7-1-6-14 7-8 1-3-1 1-8 5-5 12-6-7-11-9-15-7-13-3-7zm234 99-8 10-7 10-7 8v2l6 4 4 5 2 4v6l-10-2-7-6h-2l-7 12 5 8 3 10-1 13-2 8 20 3 16 8 6 4h3l6-11v-3l-10-6-7-6-6-15v-39l4-27zm-358 53 1 4-3 7-1 3-1 6h-2l-1 5-5 5-7 8-3 3v2h8l5 3 4 1 6 9v13l-5 8-2 5-4 3 2 5 3 3 1 5h2v4h-2l-2 7-2 6-4 4-4 6-2 1v2l-4 2 1 8 6 4h4l2-10 1-4 8 3 10 9 10 7 14 7 13 3 13-1 13-4v-2h-5l-1-3-10-7-5-9 1-9 1-4h12l14 1 12-3 7-6 1-3-5-6-7-13-7-10-7-9-8-10-5-4-4-7-10-9-4-5-11-9-10-9-10-8-7-4-3-4zm315 282-4 19-3 6 1 2 6-12 5-14zm-734 132 3 9 3 3 5-1 2-4-3-3h-5l-1-4z" fill="#050405"/>
<path transform="translate(819,807)" d="m0 0h17l6 1 26 1 29 5 24 7 8 4 11 4 15 9 9 7 3 3 8 7 5 4 7 11 4 12 3 1v5h14l14 10 7 8 2 3 2 12 1 1v48l-4 30-6 27-15 60-5 16-1 11 3 3 4 2 15 1 12 7 10 11 8 16 3 11v15l-4 16-7 19-7 13-10 14-11 13-17 17-11 9-13 10-14 8-18 6h-9l-13-4-12-7-12-11-7-7-9-14-8-15-2-2-8 1h-18l-7-2v-2l-9-2-10-5-6-6h-5l-9 3-7 2h-8l-15-5-11-7-13-11-5-1-9 7h-11l-10-5-6-7-4-6-5 2-12 13-7 5-7-3-14-11-7 1-10 4h-14l-12-3-12-5-9-2-2 2-3 9-5 8-7 7-10 6-10 4-10 2h-15l-10-2-13-6-5 1-8 5-4 5-10 8-11 5-6 1h-10l-10-3-11-7-3-3h-6l-1 1 1 18-4 8-5 4h-10l-10-6-10-11-4 1-6 11h-7l-5-3h-4l-1 16-3 12-5 7-8 4-9 2-12-2-8-5-7-7-12-23-13-37-14-45-7-20-1-5v-22l4-9 4-6 7-6 4-2h9v2l13 1 4-4 6-11 9-10 13-5h11l5 5 2 3h7l7-4 3-6 2-10 2-43v-98l-1-28v-17l4-10 3-5 4-4 1-4h2l2-4 7-6 8-4h13l8 2 14 7 8 6 6 6h6l9-6 14-5 6-1h15l4 3 5 2 4 5 9 19 15 37 6 16 3 5 6-1 8-5 9-3 11-2 2-7-4-28v-40l5-10 9-11 10-8 15-8 7-3h6v-2l13-3 7-2h28l10 5 5 6 3 14 1 15v63l-2 38-1 12-1 2-18 4-20 4h-7l-7-25-3-12v-5l35-2 15-2 3-3-1-10-5-18-1-4-25 3-20 3h-6l-3-8-2-8v-6l5-4 12-5 13-3 24-2 7-3-1-7-12-28-1-1h-8l-5 2-21 6-19 8-13 7-7 6-8 12-2 5v5l2 4 7 49 11 54 6 24 5 10 9 8 6 3h9l40-9 13-3v-14l1-1 3-29 6-31 8-33 5-20 2-1-2 11-6 31-5 37-6 35-1 16 4 4 10 3 10 1h9l8-1 5-6 1-3 1-19 1-5 2 2 10 28 3 3 4 1 3 5 9-1 7-1v-2l4-2h3l-1 9-3 13 1 8 6 2 11 3 23 3h25l2-1 1-8h-9v-41l1-23 4-26h2l1-15 4-19 2-7 6-24 8-22 3-5h2l2-7 2-3h6l2 3 14 4 13 4 10 4 8 4 10 4 10 5 1-7 5-13h1l-1 9-4 8-1 5 6 2 3-8 4-11v-10l-27-14-29-12-33-11-28-7-22-4-10-1h-31l-2 5-2 11-7-1h-9l-21 3-16 4-3 1 3-12 4-8 9-3h26l1-3 15-2 12-6 3-2z" fill="#4E3863"/>
<path transform="translate(468,584)" d="m0 0h4l7 21 12 45 6 20 2 8 4 17 3 9 3 13 4 15 6 22 3 8 2 9 6 19 7 25 6 17 4 13 9 28 3 9 6 16 11 33v3l-16 3-8 4h-2l-3-9v-3l11-6 1-1v-5l-3-2 1-3-5-16-7-22-2-8h-9l-11 4h-2l-1-5h-2l-1-2-7-3v-2l11-6 10-6 2-2-1-8-12-36-6-15-1-1h-7l-14 5-10 4-12 5-20 11-5 4 2 12 3 8 6 13 4 11 2 3v4l-6 2v2l-4-1-5-5v-2l-4-1-5-3v-2l-13-3-4-2-4-9-5-10v-2l-11 3-7 4-10 4-15 8-23 11-8 5h-2l1 6h6l13-7 19-10 16-7 14-7h3l3 9-16 3-9 7-3 1v2l-5 5-7 10-6 14-1 3-1 28-4 1-8-23-3-6-4-11-6-9-5-1 1 8 5 10 4 10 5 14 4 10 1 4 11 1 1 49v60l-1 23h-2l-6-21-4-12-4-15-7-25-3-9-3-13-7-24-4-15-6-19-6-22-3-9-4-16-8-24-7-25-7-22-4-15-6-19-5-15-4-13-6-17-7-19-5-12-2-5v-5l10-4 12-5 22-10 21-9 22-9 16-6 13-4 10-4 16-5 10-4 24-8 10-4 10-3 10-4z" fill="#727782"/>
<path transform="translate(496,878)" d="m0 0 7 1 7 11 7 17 10 30 7 28 6 31 2 18 23-11 13-7 10-5h6l5 5 14 35v5l-2 2-27 8-22 8-6 3 10 6 6 7 5 13 3 18v13l-3 7-12 5h-13l-2-2-3-21-3-6h-6l-3 5v7l4 10 6 8 8 5 13 7 8 7 5 8 3 11v10l-5 13-6 8-9 9-12 7-15 4-5 1h-14l-10-5-6-7-7-14-3 8-4 12-6 9-7 6-10 4h-13l-11-3-1 1-7-1-10-8-10-12-9-15-6-16-2-12v-12l3-16 4-9 6-8 6-4-11-2-6-4-4-9-4-13-5-27-4-37v-25l1-4v-45l3-31 4-13 7-9 5-5 8-4h3v-2h15l11 7 6 7 7 11 6 12 8 21 7 23v4h2l4 18 9 39 1 1 3 18 4 19v8l-4 14-5 5-10 5-7 1-5-3-5-9-5-19-3-19-4-16-5-3-10 1h-2l-1 10 4 20v6h2l3 11 1 10 2 5v7l-4 6-6 4 18 2 12 4 4 4v3l4 1 8 6 7 8 5 9 5 17h2l4-2 7-1h8l7 2 5 6 4 9 5 6 4 1 4-5 3-6-2-9-4-6-11-8-11-7-11-9-11-10-4-9-1-7v-10l1-12 4-5 8-15 7-6 10-5-3-8-17-56-14-44-9-21-7-12v-2h-2l-2-5v-6l4 1 4 3 4-1 4-3h3l10 30 16 50 8 20 6 11 9 12 9 8 9 4 10 1 10-5 7-6 7-11 3-6 2 3 5 14 1 5 6 1-11-28-2-3-5 2-40 20-3 2h-5l-3-3-1-3-2-23-3-19-4-15-6-24-7-20-2-6v-4h-2l-6-16-2-2h-5l-14 8h-5l-2-6 16-9z" fill="#331312"/>
<path transform="translate(235,677)" d="m0 0h2l11 27 12 34 10 32 18 61 10 32 15 53 7 23 5 19 14 49 5 18-1 4-10-18-7-11-6-14-3-6-1-1h-7l-3 1h-7l-14-3-13-1v-2l16-8 16-9 3-4-1-9-11-24-11-26-4-8-9 1-17 9-10 8-5 5 1 7 8 21 13 31 4 6v2l-19 1-10-28-10-21-4-5-8 1-10 5-14 10-4 3 1 14 12 37v5l-3 3h-2l-4-11-15-48-13-43-16-52-12-36-8-19-2-3 1-5 46-46 8-7 9-9 8-7 16-16 8-7z" fill="#3F444E"/>
<path transform="translate(854,1104)" d="m0 0h33l38 6 25 6 17 5 1 1v7l-13 26-3 3-6 1-6-4-5-4v-2l-10-2-16-2-3 12-4 12-6 15-6 12-9 23-4 15 6 1 6 7 9 17 4 5v2l4 2 3 3-4-10-1-4v-14l5-16 8-16 9-14 9-12 10-11 7-8 8-7 15-12 14-8 8-3h10l8 5 5 8 2 10-1 23-4 16-5 15-11 25-8 15-7 10h-2l-2 4-7 7-9 7-10 4-9 2h-12l-9-2 12 6 5 1h8l9-2 23-11 9-5 5 1-5 5-11 9-15 9-20 7h-9l-13-4-12-7-12-11-7-7-9-14-8-15-2-2-8 1h-18l-7-2v-2l-9-2-10-5-6-6h-5l-9 3-7 2h-8l-15-5-11-7-13-11-5-1-9 7h-11l-10-5-6-7-4-6-5 2-12 13-7 5-7-3-14-11-7 1-10 4h-14l-12-3-12-5-9-2-2 2-3 9-5 8-7 7-10 6-10 4-10 2h-15l-10-2-13-6-5 1-8 5-4 5-10 8-11 5-6 1h-10l-10-3-11-7-3-3h-6l-1 1 1 18-4 8-5 4h-10l-10-6-10-11-4 1-6 11h-7l-5-3h-4l-1 16-3 12-5 7-8 4-9 2-12-2-8-5-7-7-2-5 1-1h9l13 1 13-5 6-5 2-4 2-10 4-5 7-2 4-6 4-2h9l6-4 7 1 7 7 6 8 6-1 2-13 4-6 12-7 5-1 15 5 4 1h16l10-4 24-18h6l10 6 12 4h11l18-4 12-6 5-6 7-14 5-6 6-3h8l20 5 8 1h15l8-2h6l13 8h6l10-7 4-2h19l10 8 7 3 10-1 3-1h7l22 11 17 6 12 2 26 1 4 1 9-20 11-24 12-26 1-3-10-3-5-3-2-3-5-1-2-3v-6l6-14 4-8z" fill="#332542"/>
<path transform="translate(402,450)" d="m0 0h10l5 2 4 5 1 2 1 13 2 2 5-1 11-7 5-1h9l5 6 4 9h8l5-5 7-6 9-1 8 7 2 3 1 5v14l-6 12h-2l-2 4-18 18-3 2v6l3 2 16 1h4v2h7l3 4-1 9-11 13-8 6 1 6 12 3 1 1v8l-7 10-4 3-4-10-5-13v-8l-1-1h-7l-13 4h-2v-7l-1-3-17-2-4-2v-7l-4-1v-3h-2l-2-8-4-1-1 11 2 4-1 4-8 10-9 10-8 10-6 7-4 3-7 1-11-17-3-4 14-7 4-8-1-4-4-1-7 8-8 4-3 1h-16l-3 3-4 9-8 10-10 7-2 1h-9l-4-3v-16l2-8v-4l-4 1-4 5-2 5-1 11 2 8 3 5 6 4h12l6-3h8l7 3v2l3 1-2 2-19 7-5 2h-3v-3l-5 3-3 5-26 11-7 2 2-4 1-5 1-8h2l2-4 6-6-1-6-7-10-2-6v-13l5-5-1-5-9-5-3-4v-13l6-10 5-6 11-7 5-3 1-26 3-15 4-10 10-13 13-9 9-3h14l9 8 2 4 1 10 2 3 7-1 2-4 9-10 10-7 5-3z" fill="#72B132"/>
<path transform="translate(1060,574)" d="m0 0h2l8 10 16 17 14 13 13 10 23 16 20 13 16 9 16 8 22 10 2 2 2 10v4l-10 4-9-1-10-6-5-6-6-12-5 2-7 7-3 1h-7l-6-4-6-7-5-13-4-1-12 6h-8l-8-5-5-6-2-6-2-18-4 1-3 6v9l4 11 6 9 9 5 4 1h13l7-1 7 12 8 7 7 3 10-2 7-3h3l6 8 8 6 6 3h19l5-1 5 25v5l-7 6-2 1h-7l-8-4-7-7-6-13-5 1-11 6h-12l-8-4-4-5-3-7h-7l-5 2h-15l-8-4-6-7-4-6-3 1v8l6 9 6 4 6 2h24l7 8 12 6 5 1 14-1 7-2 7 9 7 6 6 3 5 1h7l7-2 3-1 2 7 2 13v9l-12 7-8 1-6-4-4-6-4-10-7 1-11 5-9 1-10-2-8-4-6-8-3-5v-2l-7 1-2 1h-18l-12-3-9-6-4-5-1-9-6 1-1 2 1 9 6 8 12 7 10 3 27 1 4 7 7 6 11 4h20l8-3h4l4 8 8 7 5 2 10-1 9-4 4-1 3 13 7 41v6l-5 3h-9l-10-5-7-8-4-8-1-1-8 1-8 2h-8l-6-3-4-6-2-9-4-4-7 1-13 4-11-1-10-4-12-9-5-7-1-7h-8l-7 4-3 1h-7l-11-4-5-4-3-6 1-27 3-2v-5l-3-2-1-3-1-25v-72z" fill="#D42F35"/>
<path transform="translate(270,460)" d="m0 0 10 1 9 3 9 7-1 6-4 10-3 12v14l2 9-7 3-8 6-8 9-4 7-3 8v12l6 9 4 2v3l-7 3-5 10h-2l-1 3-3-1-19-1 1 6 4 2 12 1v5l-6 11-1 2h-2v2l-5 1-5-5-10-9-5-3 1-4 7-7v-7l-4 1-10 8-19 1-14 11-4 2-13-1 1 6 3 2 14 1v2l9 1 9 6 6 6v2h2l6 9 5 4v22l-5 12-7 4h-14l-7-1v-2l-5-1-2-9 3-5 1-7 9-3 6-6 1-3h2v-8l-6-1-2 5-2 4-13 7h-3l1 6h-11l-9-2-3-3-2-4v-8l3-8 2-3v-5l-1-1h-5l-4 2h-19l-6-3-6-5-5-8-2-8v-15l3-8 7-9 10-7 8-4 23-2 2 13 4 6 8 5 8 2 19-1 8-2 5-4v-2h-13l-8 1h-9l-7-1-7-5-1-2v-7l3-9 2-2v-5l-8 1-8 4-6 1h-13l-8-2-4-2v-2l-3-1-4-6v-10l6-8 7-6 8-4 17-4 1-4-6-8v-12l2-7 4-5 7-4 17 1 20 7 21 10 12 4h6l1-6-3-3-1-9 5-7 9-6 7-2z" fill="#72B132"/>
<path transform="translate(1082,938)" d="m0 0h28l18 4 16 6 12 7 11 11 8 11 9 17 6 18 1 5v14l-3 18-5 15-3 11-3 7-3 11-4 10-4 13-6 17-2 1-27-3-22-6-21-8-30-14-24-13-15-10 2-11 4-15 10 1 22 6 8 3-3 3-9 3v5l2 1h7l10-6 2-2 7 1 17 7 12 7 4 12 4 4 5-1-1-7 5 2 10 7 12 11 7 7h4v-6l-9-10-9-8-16-11-9-6v-11l5-17 4-7h16l8-3 5-7v-10l-3-3-6-2-7 1-9 6-7 8-11-3-8-3 1-7 2-7 1-11-2-7-5-5-9-1-8 4-4 5-3 8 1 8 6 9 8 6-1 5-6 10-9 13-1 1-8-1-25-7-15-4 4-17 4-18 5-33 1-11 5-9 12-12 12-5z" fill="#FB160F"/>
<path transform="translate(806,828)" d="m0 0h27l7 2 11 1 25 6 16 4 18 6 7 3 11 3 12 5 10 5 4 1v2h4v3l9 3 5 3-2 9-4 11-5-2-11-5-11-4-7-3-11-4-13-4-8-3-1-2h-6l-4 9-2 1-8 20-4 13-5 23-2 6-3 14-2 15h-2l-1 12-2 14-1 23-1 41h9v8l-3 2h-12l-18-3-24-9-3-3-1-5 4-15 6-17 12-32 21-63 13-40 5-20-11-1-7-1-18-1h-14l-2 7 8 10 2 6v10l-4 9-7 11-7 7-12 6-12 4v8l4 19 5 22 2 15 3 12h2l1 3v8h2v4l-6 3h-2l-2-5-6-4-8-9-5-14-10-36-3-10-3-5v-2h-6l-6 38-4 30-2 3-5-14-3-19v-27l3-23 6-29 10-39 1-3-7 2 1-5 6-3 16-4 7-1h17l5 3v8h2l1-4 4-3h2v-9z" fill="#753217"/>
<path transform="translate(923,398)" d="m0 0h45l32 3 29 5 26 6 15 5 15 7 21 11 11 7 11 9 6 8 2 4v13l-3 38-3 17-4 9-9 10-11 8h-11l-6-2v-10l7-1-2-4-7-4-5-2-2 35-1 9-2 2-8-9-10-5-3-3-7-3h-8l-9 3-23 11-21 10-23 13-24 14-11 7-4-6-4-4-8-3 1-4 18-12 7-5 11-6 23-12 31-13 24-9 25-11 17-10 11-9 7-8h2l2-5 5-12v-16l-5-12-7-10v-2l-4-2-7-6-12-6-11-3h-23l-19 3-17 5-16 8-14 8-17 13-12 11-11 11-3 4-21 2v6l12 2-2 4-6 9-7-2-7-6-6-9-2-6-1-10v-16l3-25 4-16 2-2 8 7 6 2-2-8-9-8 1-5 6-8 8-7z" fill="#5D696A"/>
<path transform="translate(831,498)" d="m0 0 3 2 2 8v10l-6 11-4 5v5l8-1h20l12 4 11 7 7 7 3 8v15l-3 13-4 11-3 8 1 4 2 2 11-1 7-1h18l6 5 1 2v11l-7 6-8 3-6 1h-26v6l12 8 8 8 3 7v8l-6 8-7 4-6 1-17 1v7l2 3 11 4 6 5 2 4v11l-2 9-5 8-9 8-14 6-4 1h-20l-9-2-1 16-4 16-7 11-8 6-5 2h-14l-11-7-2-2-2-5-3-3-1-4v-9l8-15 9-14 4-6 9-4 10-9 9-14 8-16 3-9 2-18-3-25-4-16-5-14-9-17-3-4v-9l4-20 2-5 4-16 4-10 7-20 6-14z" fill="#B4B4B9"/>
<path transform="translate(726,478)" d="m0 0h12l6 4 3 4v11l-4 11v5l6-1 1-2 8-2 5-4 4-2h9l8 7 6 7h7l10-5 6-10 5-10h7l-2 6-5 11-8 20-10 30-2 4-4 26-5-2-5-4-16-7h-8l-2 1v3l21 9 10 8 7 8v2h2l4 7v4h-11l-5 4-6 14-1 11 2 18 2 9 5 13 6 10 8 8 6 3-6 12-9 11-8 6h-5l-6-12-11-12-9-7-12-6-10-1-16 4-15 8-10 9-3 4-5-1-8-11-5-13-1-10 11-4 11-8 9-11 7-12 4-10 3-11v-15l-3-8-5-5h-10v-2l5-5 8-6 11-7 8-3 13-2 9-1 2-2-3-3-3-1h-9l-17 4-6 2 2-23 1-1v-6l-1-1-2-37-2-16v-8l5-4z" fill="#737884"/>
<path transform="translate(255,984)" d="m0 0h25l15 3 9 4 8 6 9 10 9 14 10 19 10 23 8 23v3l-4-1-7-5h-18l-10 4h-2v2l-11 9-9 4-8 1-8-10-9-16 1-4 8-6 5-8v-11l-4-7v-2l-10-5-9 1-5 5-2 5v8l4 14-1 5-16 6-4-2-7-8-8-4-9-1-5 3-2 3v8l6 8 8 3h16l5 10 3 11 1 13-3 3-18 12-11 9-9 9-3 4-1 5h6l15-15 15-11 4-1-1 8h6l5-5v26l1 5-8 3-18 4-23 2-15-43-8-26-5-16-4-20v-9l5-19 9-19 7-11 9-11 8-7 16-8 12-4z" fill="#FA160F"/>
<path transform="translate(681,479)" d="m0 0 4 1 2 2 1 10-4 9v5l4 1 6-4 8-8 1-2h2l2 18 1 23v38l-2 11-15 14-10 13-8 13-9 19-5 19-1 7v8l2 7 3 17 3 10 6 11 6 7 4 3 6 17 4 19v7l-5-1-1-1-1-21-3-9-4-4-3-1h-9l-10 7-4 5v10l1 1 7 1-1-8 9-8h6l4 6v16l-4 10-7 8-6 3h-9l-7-3-6-7v-14l5-9 3-3v-7l1-3-19-2-12-5-7-5-4-8 1-13 4-11 3-6-1-5-21-3-6-4-3-4v-9l7-14 8-8 7-4 7-2v-5l-1-1-15-2-12-7-5-5v-3h28l12-6 6-10 2-10 1-23 3-9 6-8 9-6 13-4v-20l2-9 3-10 6-11 9-10z" fill="#9299A8"/>
<path transform="translate(493,365)" d="m0 0h10l13 2 13 4 16 9 9 5 13 11 12 12 11 14 10 15 9 16 5 13 4 10 6 24 1 10 1 1 1 8v12l-1 3-1 14-2 7-3 25h-2l-6-10-10-14-10-12-9-11-27-27-10-8-12-10-34-25-15-13-14-14-10-15-5-12v-13l3-7 6-8 9-8 12-6z" fill="#1D879C"/>
<path transform="translate(1032,440)" d="m0 0h16l15 4 10 6 10 10 7 13 1 5v11l-3 7-6 8-10 10-6 4-11 7-16 8-8 3-12 5-16 6-25 10-15 7-17 9-20 12-11 8-19 14-8 2 6-17 2-6 1-10-2-16v-8l8-16 8-15 13-18 12-13 11-11 14-11 15-10 15-8 11-4h5v-2z" fill="#1D879C"/>
<path transform="translate(903,689)" d="m0 0 6 1 30 12 50 17 24 8 29 12 3 3-6 16-14 33-10 27-12 36-5 16-2 1-3-6v-3h-2l-7-9-6-5-4-5-4-2-2-3 1-6 6-14 6-20 2-9v-19l-4-4-10-5-18-6-16-3-15-2h-11l-8 11-8 17-10 25-28-3-17-1 1-5 10-25 8-3 13-5 11-8 6-9 4-10 1-7v-9l-4-10-6-7 11-4 6-4z" fill="#F8BF5A"/>
<path transform="translate(576,684)" d="m0 0 4 1 7 5 8 3 8 2-3 11-1 3v15l4 9 4 5 15 8 15 4-2 5-4 8-1 8 4 13 3 4v2l4 2 9 4h8l9-3 5-1v-2l6-4 3-6 5 1-2 9-9 18-17 1-19 4-23 8-16 8-9 7-6 5-7-1-16-8-11-8-4-5-9-29-12-41v-9l5-14 4-8 10-13 11-10 14-9z" fill="#FBA01E"/>
<path transform="translate(1049,579)" d="m0 0h1v44l-1 17v91l-9-3-23-9-21-7-47-17-29-10-12-5-1-1-2-15 10-5 22-14 47-29 24-14 24-13z" fill="#F7BF5B"/>
<path transform="translate(414,893)" d="m0 0h8v2l4 1 8 7 8 11 8 18 4 10 7 21 2 7 2 12 3 10v5h2l2 9 7 32 3 12 2 10 1 18-4 6-11 5-3-3-2-3-2-10-2-5-5-30-4-11-3-4-5-2h-14l-8 4-2 6v16l4 21 3 9 2 17-6 4-7 1-13-4-5-44-2-24-2-49-2-31v-18l3-16 5-11 8-7z" fill="#FAAE0E"/>
<path transform="translate(343,1122)" d="m0 0 5 2 4 4 9 7 8 9 12 19 8 16 8 18 6 16 1 4v9l-4 7-8 6h-6l-6-4-8-14-12-23-3-2-3 12-5 6-4 2-3 3h-7l-4-2 2 10 6 16 3 7 1 10-3 7-4 4-7 3-12 1-7-13v-2l-4-2-7-15-10-27-5-20-2-13v-22l3-9 6-8 6-3h13l8 4 4 3 2-8 6-12 5-4z" fill="#331211"/>
<path transform="translate(93,539)" d="m0 0h11l5 2 3 9 7 8 2 5-15 14-6 10-2 5v16l3 11 5 9 5 6 6 4 6 3 19 1v15l4 11h-9l-8 7h-9l-2-3-5 1-1 5h2l5 5 13 3v2l6 2 7 8 2 5v6h2l1 7v8h-7l-5-2-1-3h-2l-6-15-2-2-7 1-10 3-4 1h-13l-5-3-2-3-2-15-5-1-6 2h-10l-5-2v-2l-4-2-4-5-2-5v-15l1-7 8-13 6-7 7-5 1-4-5-5-8-7-3-6-1-5v-10l4-14 8-13 9-10 7-6 7-4z" fill="#72B132"/>
<path transform="translate(410,885)" d="m0 0h15l11 7 6 7 7 11 6 12 8 21 7 23v4h2l4 18 9 39 1 1 3 18 4 19v8l-4 14-5 5-10 5-7 1-5-3-5-9-5-19-3-19-4-16-5-3-10 1h-2l-1 10 4 20v6h2l3 11 1 10 2 5v7l-4 6-6 4 18 2 12 4 4 4v2l-10-3-12-3-12-1-6 4h-8l-8 9-3 6h5l3 2-1 7 1 19 5 19 5 12 7 12 9 10 8 5 3 1h13l8-4 4-3 9 2-3 5-7 6-10 4h-13l-11-3-1 1-7-1-10-8-10-12-9-15-6-16-2-12v-12l3-16 4-9 6-8 6-4-11-2-6-4-4-9-4-13-5-27-4-37v-25l1-4v-45l3-31 4-13 7-9 5-5 8-4h3zm4 8-8 3-7 7-5 14-2 12v18l2 31 2 49 4 44 3 24 13 4 9-2 4-3-2-17-3-9-4-21v-16l3-7 7-3h14l6 3 4 7 4 17 4 24 2 5 2 7 3 5 11-4 4-5 1-2-1-18-7-32-5-22-2-9h-2l-1-7-3-12-2-11-6-20-3-8-7-17-6-11-7-9-8-7h-3v-2z" fill="#322440"/>
<path transform="translate(1047,762)" d="m0 0h1l2 15 3 5 6 7 14 7 4 1h11l8-2 11 12 11 7 10 4 5 1h19l5-1 5 9 2 4 4 2 10 4h9l5-2 4 1v2h2l-1 5-8 16-13 28-19 42-5 12-3 1 1-5 4-10 2-4-1-5-5-5-5-3 3-10 12-23 6-10 4-9-1-7-5-4-27-11-18-7-21-7-16-5h-15l-5 13-7 15-8 20-8-2h-6l-4 5-3 6v10l8 5 39 18 23 11 28 13-4 1-5-1h-39l-12 3-10 5-4 3h-6l-2-7-1-20-4-10-8-11-9-8-9-5-6-2 2-9 12-36 6-17 11-29 10-25z" fill="#FD9448"/>
<path transform="translate(970,924)" d="m0 0h15l8 3 7 5 4 5 4 16v20l-4 23-4 15-3 16-2 7-2 11-2 8-5 27-3 8-5 5h-6l2-6 2-4-1-7-3-8-1-7v-27l-1-1-7-1-4-2h-22l-6 5-4 8-3 13-1 23-4 1v-2l-12-2 5-28 6-27 8-27 8-19 11-24 9-14 10-10z" fill="#FBAF0F"/>
<path transform="translate(721,1057)" d="m0 0h13l8 4 3 4v11l-6 24-4 17-1 7v21l1 2 10-26 7-24 5-19 6-16 4-4h10l9 2 3 3 1 3v11l-6 33-7 27-6 16-7 13-9 11-9 8-11 6h-8l-9-6-9-8-6-10-4-13-1-14 2-23 5-26 6-21 4-9z" fill="#030102"/>
<path transform="translate(235,677)" d="m0 0h2l11 27 12 34 10 32 18 61 10 32 15 53 7 23 5 19 14 49 5 18-1 4-10-18-7-11-6-14-3-6-1-1h-7l-3 1h-7l-14-3-13-1v-2l16-8 16-9 3-4-1-9-11-24-11-26-4-8-8-1 1-3v-5l-6-5 2-6 4-6-1-8-9-24-11-25-2-4v-3h-2l-5-9 1-5v-8l-14-41-4-8-4-3-1-3-2-1h-15l-2-1h-5l6-7 10-10 7-8z" fill="#454C52"/>
<path transform="translate(1e3 1144)" d="m0 0 6 1 5 5 3 10v14l-5 23-7 19-12 25-10 16-13 13-9 5-10 3h-13l-12-4-7-8-3-10v-12l4-14 8-16 10-16 12-14 12-13 14-12 13-9 10-5z" fill="#BA2030"/>
<path transform="translate(831,498)" d="m0 0 3 2 2 8v10l-6 11-4 5v5l8-1h20l12 4 11 7 7 7 3 8v15l-3 13-4 11-3 8 1 4 2 2 11-1 7-1h18l6 5 1 2v11l-7 6-8 3-6 1h-16v-1l12-1-5-1 1-5-6-2-21-2h-9l-9 4h-6l-5-4-1-2v-9l-1-7h-2v-3l-4-2-5-4-4-1 8 18 3 10v9l-5 7h-3l-2 2-4-16-5-14-9-17-3-4v-9l4-20 2-5 4-16 4-10 7-20 6-14z" fill="#9299A9"/>
<path transform="translate(815,829)" d="m0 0h23l2 1 11 1 25 6 16 4 18 6 7 3 11 3 12 5 10 5 4 1v2h4v3l9 3 5 3-2 9-4 11-5-2-11-5-11-4-7-3-11-4-13-4-8-3-1-2h-6l-4 9-2 1-8 20-4 13-5 23-2 6-3 14-2 15h-2l-1 12-2 14-1 23-1 42-18-2-21-6-4-2 2-9 20-55 5-16 19-56 9-31 2-10v-17l-3-1v-2l-9-3-13-3-31-4-4-2-1-3 4-7z" fill="#FAAE10"/>
<path transform="translate(815,858)" d="m0 0h14l18 1 18 3-1 9-10 33-17 52-9 25-7 20-7 19-6 17-3 14 3 5 24 9 18 3v1h-13l-23-3-11-3-6-3-2-4 1-9 4-17-7 2v2h-3l-1-8 1-2h4v-2l6-2v-4h-2l-1-11h-2l-5-16-2-15-4-18-4-19v-8l7-3 13-5 8-6 6-7 5-9 3-7v-10l-3-7-7-9z" fill="#332540"/>
<path transform="translate(624,632)" d="m0 0h10l6 4 7 9 5 2 8 1 1-4h1l-1 8-3 16v8l2 7 3 17 3 10 6 11 6 7 4 3 6 17 4 19v7l-5-1-1-1-1-21-3-9-4-4-3-1h-9l-10 7-4 5v10l1 1 7 1-1-8 9-8h6l4 6v16l-4 10-7 8-6 3h-9l-7-3-6-7v-14l5-9 3-3v-7l1-3-19-2-12-5-7-5-4-8 1-13 4-11 3-6-1-5-21-3-3-2 1-2 2-1 2-9 7-8 10-7 8-6v-6l-5-5v-3z" fill="#B4B4B8"/>
<path transform="translate(635,1054)" d="m0 0 9 2 8 5 8 9 7 14 4 14 2 11v23l-3 12-4 8v6l8 7 12 8-2 6-3 5-6-2-12-7-8-1-12 6h-10l-10-5-7-9-5-11-4-15-2-16v-14l2-16 5-19 6-12 8-5 5-3z" fill="#D42F35"/>
<path transform="translate(726,478)" d="m0 0h12l6 4 3 4v11l-4 11v5l6-1 1-2 8-2 5-4 4-2h9l8 7 6 7h7l10-5 6-10 5-10h7l-2 6-5 11-8 20-10 30-2 4-4 26-5-2-5-4-16-7h-8l-2 1 1 5-7-1-1-6-5-2h-9l-17 4-6 2 2-23 1-1v-6l-1-1-2-37-2-16v-8l5-4z" fill="#858B99"/>
<path transform="translate(1016,1089)" d="m0 0 5 2 20 12 19 10 28 13 19 7 14 4 16 3 20 1-1 7-6 19-7 25-5 3-11 5-17 4h-11l-15-3-12-3-9-4 1-11v-25l-4-12-8-14v-2l-4-2-7-7v-2h-3v-2l-5-1-6-3-16-3 1-7z" fill="#908EA5"/>
<path transform="translate(973,915)" d="m0 0 14 1 8 3 8 4 7 8 4 11 2 14v16l-3 20-8 36-12 55-5 13-6 5h-14l-12-3-3-5v-8l4-26 1-20-3-1h-15l-5 7-3 18-1 20h-2l-2 4-2 1h-10l-8-3-4 1-1 1h-6l-5-4-1-8 5-25 7-26 12-36 10-25 12-24 10-15 5-4 10-2zm-3 9-8 5-9 9-10 17-14 31-9 27-6 25-7 36v2l12 2v2l4-1 1-23 4-16 6-8 3-2h22l4 2 7 1 1 1v27l2 9 3 8-1 7-3 6v2h6l5-5 3-8 5-27 2-8 3-16 3-10 3-16 4-17 2-13v-20l-4-16-5-6-7-5-7-2z" fill="#401E0A"/>
<path transform="translate(147,886)" d="m0 0h3l7 21 12 40 16 52 3 9-1 5-8 4-7 2h-12l-12-3-10-5-5-4-7-10-6-12-4-14-3-20 1-20 3-11 9-16 11-11z" fill="#4A5D4F"/>
<path transform="translate(496,878)" d="m0 0 7 1 7 11 7 17 10 30 7 28 6 31 2 18 23-11 13-7 10-5h6l5 5 14 35v5l-2 2-27 8-22 8-4 2h-7l-5-1h-26l-3-8-17-56-14-44-9-21-7-12v-2h-2l-2-5v-6l4 1 4 3 4-1 4-3h3l10 30 16 50 8 20 6 11 9 12 9 8 9 4 10 1 10-5 7-6 7-11 3-6 2 3 5 14 1 5 6 1-11-28-2-3-5 2-40 20-3 2h-5l-3-3-1-3-2-23-3-19-4-15-6-24-7-20-2-6v-4h-2l-6-16-2-2h-5l-14 8h-5l-2-6 16-9z" fill="#401E0B"/>
<path transform="translate(772,844)" d="m0 0h17l3 3h-2l-2 9-7 3-1 1-14 3-9 4-3 22v26l2 7h7l21-5 7-3 8-8 5-10 2-8-1-13-1-6 2-1-6-4-1-4h14l-1 7 7 6 3 5 1 4v10l-4 9-7 11-7 7-12 6-12 4v8l4 19 5 22 2 15 3 12h2l1 3v8h2v4l-6 3h-2l-2-5-6-4-8-9-5-14-10-36-3-10-3-5v-2h-6l-6 38-4 30-2 3-5-14-3-19v-27l3-23 6-29 10-39 1-3-7 2 1-5 6-3 16-4z" fill="#FBAE0E"/>
<path transform="translate(823,1079)" d="m0 0 7 1 15 4 2 2v9l-8 29-18 69-4 15-4 3h-16l-14-2-5-5v-8l-4 1-5-2-2-2 1-8 16-38 16-39 7-13 7-11z" fill="#331212"/>
<path transform="translate(755,846)" d="m0 0h6v1l-14 4-4 2-1 4 4-2h3l-2 10-11 45-4 21-2 18v27l3 19 4 12 1-1 4-30 6-36 1-2h6l5 9 11 41 5 15 7 9 5 4 3 2 1 5 2 1h-4v10l-7 3h-6l-3-4v-2l-5-1-3-3-10-28-1 3-1 19-3 6-4 4-8 1h-9l-15-2-8-4-2-3 1-16 8-48 4-30 3-16 4-18 1-8 11-37 1-2 7 1 5-2z" fill="#401F0D"/>
<path transform="translate(668,839)" d="m0 0h4l4 10 5 11v2l-21 2-18 4-20 10-1 3v8l5 17 3 8h9l15-3 21-3h6l4 16v4l-20 2-30 1-3 1v12l9 33 4 9 2 3h8l29-6h8v10l-2 14 3 1v7h-12l-48 3-4-17-6-42-4-18-5-24-5-20-4-21 1-6 8-8 8-6 17-8 13-4 7-2z" fill="#FAAE0E"/>
<path transform="translate(425,1122)" d="m0 0h11l14 3 12 5 8 6 7 9 5 13 2 9v20l-4 16-5 9-8 7-5 2h-13l-8-4-10-9-9-14-5-11-5-17-2-16v-8l2-7 6-8 4-4z" fill="#B92030"/>
<path transform="translate(469,912)" d="m0 0 4 5 8 15 9 24 17 54 13 44 1 2-9 4-8 6-9 17-3 3-1 12v10l2 9 4 8 12 11 14 10 11 7 8 7 3 6 1 7-5 9-3 3-5-2-7-9-4-9-4-3-5-1h-8l-10 2-3 3-6-20-8-13-9-8-6-3-3-5-9-4-10-2-13-1 9-9 1-2v-7l-2-5-2-13-1-8h-2l-5-26 1-10 1-6h1l1 5 10-1 5 3 3 7 4 20 2 14 5 16 5 8 7 1 12-5 3-1 2-4 4-14 1-7h1l1 6 9-10 9-7-1-7-11-30-9-28-11-37-7-19-6-16z" fill="#4E3864"/>
<path transform="translate(531,1059)" d="m0 0h9l12 5 11 8 5 9 3 14 1 8v9l-4 4-6 2h-5v-9l-3-11-4-7-4-3-7-1-6 3-5 6-2 6v9l8 16 4 5v2l20 10 8 6 6 9 1 3v12l-4 11-9 10-8 6-9 4-12 3h-14l-7-4-6-9-3-8-1-15 2-3 11-1 4 3 4 15 4 6 3 2h11l6-4 6-9 2-6v-10l-4-8-9-9-15-9-13-10-6-7-2-3v-3h-2l-4-10 1-10 4-12 5-10 7-8 6-4z" fill="#F23045"/>
<path transform="translate(1e3 610)" d="m0 0h9l10 3 7 6 5 10 1 3v16l-2 13-7 14-7 9-9 8-8 4-7 2h-13l-10-4-7-6-4-7-3-11v-10l4-15 9-15 7-8 11-8 5-2z" fill="#060506"/>
<path transform="translate(690,825)" d="m0 0 4 4 3 14 1 15v63l-2 38-1 12-1 2-18 4-20 4h-7l-7-25-3-12v-5l35-2 15-2 3-3-1-10-5-18-1-4-25 3-20 3h-6l-3-8-2-8v-6l5-4 12-5 13-3 24-2 7-3-1-7-12-28v-1l9-2z" fill="#4D3762"/>
<path transform="translate(1025,1054)" d="m0 0 10 1 22 6 8 3-3 3-9 3v5l2 1h7l10-6 2-2 7 1 17 7 12 7 4 12 4 4 5-1-1-7 5 2 10 7 12 11 7 7h4l1-5h1v5h2l-2 10-3 6-28-3-22-6-21-8-30-14-24-13-15-10 2-11z" fill="#9C202E"/>
<path transform="translate(343,1135)" d="m0 0 6 1 10 9 10 14 1 5h2l15 29 9 25v6l-4 5-5 1-8-14-10-20-8-13-4-4-6 1-2 3-2 8-1 13-1 2-5-2-8-5h-8l-3 5 1 15 5 17 7 17 1 7-6 5-7 2-11-28-8-26-11-41-1-5v-7l5-5 3-1 11 7 8 8 10 15 3 5 5 1 3-7-2-11-2-10v-8l2-10 3-6z" fill="#F53146"/>
<path transform="translate(112,805)" d="m0 0 11 1 3 4 12 36 9 29-1 4-11 6-13 12h-8l-10-5-10-9-7-7-7-11-4-10-1-10 3-14 7-12 9-8 11-5z" fill="#4A5C4F"/>
<path transform="translate(625,1045)" d="m0 0h14l12 5 8 6 7 8 8 16 5 17 3 25-2 20-3 11 1 4 15 11 2 2-1 7-7 14-4 3-6-1-15-8-4-2-11 5-5 1h-12l-11-4-9-7-5-5-6-9-5-12-3-11-1-7v-29l3-15 7-20 7-11 8-8zm10 9-8 3-5 4-5 3-5 11-5 19-2 16v14l2 16 5 18 6 11 5 6 10 5h10l12-6 8 1 14 8 4 1 5-9-1-3-11-7-8-7v-6l4-8 3-12v-23l-4-19-5-13-7-11-7-7-8-4z" fill="#331212"/>
<path transform="translate(855,1113)" d="m0 0h33l25 3 24 5 21 6-1 5-8 17-3 1-5-5-4-3-13-4-16-2v-2l-6 2-1 2-2 13-3 10-3 8-18 42-6 18-4 1-22-5 1-5 12-21 14-27 12-26 2-10-7 1-4-3-11-3-12-1-1-3z" fill="#F33045"/>
<path transform="translate(235,677)" d="m0 0h2l11 27 12 34 10 32 18 61 10 32 15 53 7 23 5 19 14 49 5 18-1 4-10-18-7-11-6-14-3-6-1-1h-7l-3 1h-7l-14-3-13-1v-2l16-8 16-9 3-2-2 7 3 2 5-4v-7l-5-15-2-13-5-14-3-8-1-13-5-15-5-13-2-7-4-10-3-13-1-11-3-5-2-11-11-33v-3l-2-1-2-10-2-2-5-18-2-10-12-24-5-6-5-2-3-7z" fill="#3F444E"/>
<path transform="translate(247,797)" d="m0 0 4 2 8 17 10 25 5 15-1 6-4 6-10 7-19 12-7 3-5-4-10-21-9-24-1-9 10-10 8-7 10-10z" fill="#050202"/>
<path transform="translate(367,750)" d="m0 0 3 1 3 6 3 12v3l3 1 5 13 6 10-1 3-10 5-17 10-26 13-8 1-3-10-4-10-3-9-2-7v-4h-2l-4-10v-3l10-5 2-2 10-4 8-4 12-4 12-5z" fill="#7EDCEA"/>
<path transform="translate(482,703)" d="m0 0h2l2 9 6 18 2 9 5 15v3h-2v2l-16 7-13 6-24 10-5 1-4-14-3-7-7-26-1-6 10-4 23-11 9-5 13-5z" fill="#7FDDEB"/>
<path transform="translate(726,1064)" d="m0 0 6 1 5 3-1 10-8 32-2 11-1 23 3 14h8l6-7 6-13 9-27 7-28 5-15 1-2 9 1 3 1v9l-7 36-6 21-4 11-8 16-9 11-8 7-5 3h-7l-7-8-5-12-3-15v-32l2-17 3-21v-10z" fill="#E92131"/>
<path transform="translate(494,889)" d="m0 0h5l4 5 4 11v3h2l6 19 5 14 8 34 2 9 3 19 1 16 3 5h5l19-10 16-8 11-6 4 2 11 27v3h-6l-3-9-4-11-1-1-6 11-8 9-10 6-9 1-11-4-8-6-9-10-8-13-7-16-12-36-16-50v-2l-7 4-4 1-6-5 3-3h7z" fill="#FAAE0F"/>
<path transform="translate(732,705)" d="m0 0h7l13 8 10 9 6 7 7 12-1 4-2 3-15 2-21 7-18 9-12 9-5 4-4-22-4-16-2-6v-6l16-14 9-5 11-4z" fill="#F9F9FA"/>
<path transform="translate(912,760)" d="m0 0h11l21 4 20 6 11 7-1 12-4 13-3 8-5 16-3-4-3-3v-2l-5-1h-9l-5 2-5-1-20-7-16-4-3-1 12-30 1-4h2l1-5z" fill="#C6702E"/>
<path transform="translate(251,1180)" d="m0 0h7l7 19v7h2l3 10v7h2l5 18 1 1v6l-12 2h-15l-15-4-14-7-6-18-6-19-4-16h18l16-3z" fill="#636572"/>
<path transform="translate(342,661)" d="m0 0h2l4 15 5 10 1 7 6 11 2 4-23 10-11 5-16 6-11 5h-3l-5-17-2-4v-5h-2l-4-20h-2v-2l8-4 10-4 12-5 18-8z" fill="#7EDCEA"/>
<path transform="translate(997,1136)" d="m0 0h10l8 5 5 8 2 10-1 23-4 16-5 15-11 25-8 15-7 10h-2l-2 4-7 7-9 7-10 4-9 2h-12l-8-2v-2l-7-2-8-7-4-5-4-12v-14l5-16 8-16 9-14 9-12 10-11 7-8 8-7 15-12 14-8zm3 8-11 4-13 9-11 9-12 11-10 11-10 13-9 15-8 16-3 12v12l3 10 7 8 12 4h13l13-4 9-7 10-10 11-18 12-25 7-21 4-19v-14l-3-10-5-5z" fill="#331314"/>
<path transform="translate(826,867)" d="m0 0h24l3 1-3 14-12 39-17 50-12 34-1 2h-2l-4-9-7-28-5-26v-10l16-6 10-8 4-6h2l2-6 4-8 2-9v-10l-4-10z" fill="#4D3863"/>
<path transform="translate(458,621)" d="m0 0h3l6 21 5 21 1 7-24 8-29 10-8 1-5-18-2-12-3-17 13-5 10-3 12-5 15-6z" fill="#7FDEEC"/>
<path transform="translate(506,792)" d="m0 0 3 1 5 12 3 11 3 9 4 11v6l-10 5-13 7-4 1-18 2-9 3-11-25-6-16-1-4 21-10 10-4 17-7z" fill="#7EDDEB"/>
<path transform="translate(604,871)" d="m0 0 1 2 2 12 3 17 4 15 9 42 6 42 3 14v3l15-2 34-2 11 1v-7h1v7l9-1v8l-8 3-36 8-10 2h-9l-10-6-7-7-4-9-6-24-12-60-6-43-2-4v-5l2 1 5-3h4z" fill="#411F0B"/>
<path transform="translate(106,980)" d="m0 0h3l7 17 8 12 7 7 16 8 12 3h18l-10 26-4 16-4-3-3-9-4-1-3 3-2 7-6 6-8 1-8-4-4-5-1-4 1-13 3-10-1-6-16-2-7-5-6-11-1-4v-10l4-10 6-7z" fill="#2A2F2A"/>
<path transform="translate(818,491)" d="m0 0h7l-2 6-5 11-8 20-10 30-2 4-4 26-5-2-5-4-16-7h-8l-2 1 1 5-7-1-1-6-5-2h-9l-17 4-6 2 3-22 7 7 10-1 13-3 10 1 10 4 7 4h6l4-5-1-7-8-7-8-4-8-2-20-1 4-4 10-4 5-1h9l11 3 3 2-5-13-5-3-11-1h-4l1-4 5-4 13-2 7-1-5-6 4 2 7 7 2 3h7l10-5 6-10z" fill="#848A98"/>
<path transform="translate(417,911)" d="m0 0h10l6 8 4 15 6 31 2 11v11l-3 9-3 5-5 2-17 2-2-1-1-5-4-1-2-5-1-6v-13h-2l-1-11v-19l2-16 5-12z" fill="#773012"/>
<path transform="translate(975,944)" d="m0 0h6l5 4 6 14 2 10v18l-3 17-4 11-3 2-35-1-5-3-2-3v-9l3-13 3-5 6-18 8-14 6-8z" fill="#4B3660"/>
<path transform="translate(410,885)" d="m0 0h15l11 7 6 7 7 11 6 12 8 21 7 23v4h2l4 18 9 39 1 1 3 18 4 19v8l-4 14-5 5-10 5-7 1-5-3-5-9-5-19-3-19-4-16-5-3-10 1-1-1v-7l1-2h14l6 3 5 8 4 17 4 24 2 5 2 7 3 4 11-5 3-5-1-18-7-32-5-22-1-9h-2l-5-19-2-11-6-20-3-8-7-17-6-11-7-9-7-6-3-1v-2l-12 2-6 4-7 6v-10l-2-1 7-5 5-2h3z" fill="#070607"/>
<path transform="translate(517,635)" d="m0 0 9 5 13 8 12 5 10 2h11l8-1-5 14v6l-20 11-10 8-11 11-9 14-4 9-2-3-10-38v-8l6-20 1-5z" fill="#FAAE0E"/>
<path transform="translate(186,842)" d="m0 0h7l4 5 6 14 11 29 1 2v7l-8 7-15 10-10 6-5-1-5-12-12-36-3-5 1-7 8-8 14-9z" fill="#050202"/>
<path transform="translate(223,723)" d="m0 0 4 2 4 8 14 41v6l-19 12-19 13-3 3-5-8-8-29-3-13 1-6 8-8 11-9 13-11z" fill="#050202"/>
<path transform="translate(395,895)" d="m0 0h2l1 9 1 2-4 11-2 12v18l2 31 2 49 4 44 2 16v8l9 2 6 1 9-3 1-4-2-14-3-9-4-21v-16l3-7 5-3 3 1-3 13 1 11 3 14v6h2l3 11 1 10 1 1v10l-5 5-9 4h-13l-12-4-4-6-3-15-3-24-3-42-2-48-1-12v-38l4-13z" fill="#3E1D0A"/>
<path transform="translate(503,1216)" d="m0 0h6l10 6 12 4 8 1v1h-9l-15-3h-13l-9 9-7 5-12 4-5 1h-15l-17-4-10 1-3 2 1 18-4 8-5 4h-10l-10-6-10-11-4 1-6 11h-7l-5-3h-4l-1 16-3 12-5 7-8 4-9 2-12-2-8-5-7-7-2-5 1-1h9l13 1 13-5 6-5 2-4 2-10 4-5 7-2 4-6 4-2h9l6-4 7 1 7 7 6 8 6-1 2-13 4-6 12-7 5-1 15 5 4 1h16l10-4 16-12z" fill="#332542"/>
<path transform="translate(1156,1023)" d="m0 0 3 2 1 3v8l-3 14-1 3v8l3 5 6 3 8-1 5-4 4-10 3-1-1 9-4 13-3 7-3 11-4 10-4 13-1 2h-3l-2-6-9-10-9-8-16-11-9-6v-11l5-17 4-7h16l8-3 5-7z" fill="#FA1610"/>
<path transform="translate(831,498)" d="m0 0 3 2 2 8v10l-6 11-4 5v5l8-1h20l12 4 11 7 7 7 3 8v15h-1v-8h-2l-1 5-3 1-4-3-3-9v-4h-2v-2l-5-2h-3-2l2 5 6 9 4 11 1 4v11l-3 9h-6l-1-2-2-15-7-11-7-7-12-5-11-2h-17v-6l2-7 5-13 7-20 6-14z" fill="#858B99"/>
<path transform="translate(1119,816)" d="m0 0 9 2 5 1h19l5-1 5 9 2 4 4 2 10 4h9l5-2 4 1v2h2l-1 5-8 16-13 28-19 42-5 12-3 1 1-5 4-10 2-4-1-5-5-5-5-3 3-10 12-23 6-10 4-9-1-7-5-4-27-11-18-7-13-4 1-3h7l-6-3-5-1v-1h6l5 1 5-1z" fill="#F6BB59"/>
<path transform="translate(763,757)" d="m0 0h2l-2 6-12 25-12 32-19 10-15 12-2-42v-13l6-4 7-6 17-10 15-6z" fill="#2A2E2A"/>
<path transform="translate(982,1171)" d="m0 0 8 1 6 5 1 4v10l-6 18-7 12-9 11-9 8-11 6-9 1-5-3-2-5v-9l6-16 6-11 13-17 8-9 7-5z" fill="#331415"/>
<path transform="translate(821,1086)" d="m0 0 10 3 8 3-7 26-9 34-9 35-4 15-1 1-14-1-9-2 2-12 7-24 19-56 5-15z" fill="#F53046"/>
<path transform="translate(366,742)" d="m0 0h8l3 3 2 8h2l3 10 8 17 4 10v2h2l2 8-5 5-14 8-11 6-16 9-7 3-5 3-13 4-6-1-3-3-6-21-11-31-1-11 15-10 12-6 10-4zm1 8-14 5-9 4-11 4-7 4-5 2-6 4-5 2 1 5 3 8h2l1 9 3 6 4 14 3 9 1 2 8-1 17-9 16-8 10-6 11-6-2-5-6-12-4-9h-2l-2-10-2-6-3-6z" fill="#050608"/>
<path transform="translate(860,1105)" d="m0 0h32l28 4 27 6 20 6 1 1v7l-13 26-3 3-6 1-6-4-5-4v-2l-10-2-16-2-3 12-4 12-6 15-6 12-9 23-3 9-7-1-1-4 6-17 12-27 5-14 4-10 2-7 1-10 3-4h5v2l16 1 13 4 9 7v2l3-3 9-20-9-2-25-6-25-4-11-1-29-1-1-2z" fill="#030202"/>
<path transform="translate(678,508)" d="m0 0 2 4 4 15 6 14 7 8 6 3 5 1v19l-2 11-15 14-10 13-8 13-2-2v-3l-6-2-5-4-1-3v-11l4-11 7-10 9-10 11-8-6-7-10-16-2-6v-13l4-7z" fill="#737884"/>
<path transform="translate(425,1122)" d="m0 0h11l14 3 12 5 8 6 7 9 5 13 1 5v10l-2-1v-2l-7-2-4 2-5 5-3 2-6-21-6-9-5-3h-9l-3 3-4 7v10l1 4v7l-8 2-2 5-4-2-5-19-1-19 2-7 6-8 4-4z" fill="#F43045"/>
<path transform="translate(484,693)" d="m0 0 5 1 4 9 3 11 7 25 5 15-1 5-4 6-15 8-13 5-10 5-15 6-8 3h-6l-4-4-5-16-3-7-3-13-5-15v-8l7-6 10-6 23-11 12-6 12-5zm-2 10-18 8-19 10-12 6-9 3 2 10 8 28 3 7 2 8 5-1 12-5 15-6 5-3 10-4 11-5v-2h2l-2-10-3-8-4-15-5-15-1-6z" fill="#050708"/>
<path transform="translate(459,611)" d="m0 0h7l5 12 5 19 2 9 4 13v4l4 1v5l-8 4-18 5-10 4-36 12-1 1h-5l-3-3-5-14-2-17-4-16v-14l2-3 10-2 24-8 12-5zm-1 10-24 9-12 5-15 5-5 2 3 17 3 16 4 14 10-2 22-7 8-3 21-7-1-7-6-26-5-16z" fill="#060709"/>
<path transform="translate(350,652)" d="m0 0h5v2h-4l7 23 4 10 5 13v5l-1 1h-5l-4-5-4-8-1-7-3-5-5-16v-4l-29 12-7 3-12 5-10 5h-3v2h2l3 8 1 12h2l3 9 4 14v3l24-10 10-4 12-5 16-7h8v6l-8 5-11 4-8 4-14 5-8 4-16 5-5 3-5-2-4-10-5-14-3-7v-6h-2l-1-9h-2l-1-9-2-1 1-5 4-3 11-4 8-4 10-4 13-5 8-4 10-3z" fill="#040607"/>
<path transform="translate(496,878)" d="m0 0 7 1 7 11 7 17 10 30 7 28 6 31 2 18 23-11 13-7 10-5h6l5 5 12 30v2l-8 2-6-13-6-15-3-1-11 6-32 16-3 2h-5l-3-3-1-3-2-23-3-19-4-15-6-24-7-20-2-6v-4h-2l-6-16-2-2h-5l-14 8h-5l-2-6 16-9z" fill="#060607"/>
<path transform="translate(633,1077)" d="m0 0h9l6 4 5 6 4 11 2 20v9l-3 8-7-1-7-8-1-2h-3l1 6 5 9 2 5-1 5-5 4-9-2-5-5-6-12-2-16 2-17 4-15 3-6z" fill="#331210"/>
<path transform="translate(865,863)" d="m0 0h5v16l-7 25-16 49-7 20-4 13-22 61v3l20 6 9 2 13 1h9v8l-3 2h-12l-18-3-24-9-3-3-1-5 4-15 6-17 12-32 21-63 13-40z" fill="#401E0A"/>
<path transform="translate(170,771)" d="m0 0 2 4 14 38 1 8-9 8-13 10-8 6-4-2-14-40 1-6 12-14 9-9 7-1z" fill="#050202"/>
<path transform="translate(345,1126)" d="m0 0 9 3 11 10 10 14 6 10 8 16 8 18 6 16 1 4v9l-4 7-5 4-3-1-2-4v-3l5-5-1-9-8-22-11-22-3-5v-2h-2l-4-8-10-13-7-6-6-1-4 5-2 6-1 7v8l4 18-2 9-2 2-5-1-12-18-9-10-11-7-4 2-3 1 2-10v-1h9l8 4 10 9 3 3v2h2l1 2v-15l2-12 5-9 4-3z" fill="#030203"/>
<path transform="translate(681,479)" d="m0 0 4 1 2 2 1 10-4 9v5l4 1 6-4 8-8 1-2h2l2 18 1 23v19l-8-1-9-8-7-14-4-13-2-8-4 5-1 3v13l4 10 8 12 2 4h-6l-8-7-2-3-1-10h-2l-5-7-1-5 1-6-3 1v-6l4-12 6-11 9-10z" fill="#9298A8"/>
<path transform="translate(717,1059)" d="m0 0 2 1v5l1 2h-2l1 2v8l-4 26-1 12v32l3 15 5 12 6 7h7l10-7 9-10 5-8h6l3 3-7 11-11 12-11 7-4 2h-8l-9-6-9-8-6-10-4-13-1-14 2-23 5-26 6-21 4-9z" fill="#331313"/>
<path transform="translate(1047,762)" d="m0 0h1l2 15 3 5 6 7 6 4-1 4-2 1 4 4 1 3-10 5h-5l-2 4-10 18-4 12-3 5-9 8-6 5h-2l-2 6-2 4h-2l-2 6-3 1 2-9 12-36 6-17 11-29 10-25z" fill="#F8BE5A"/>
<path transform="translate(773,860)" d="m0 0h9l8 3v2l4 2 2 2 3 10v14l-1 2-7 4-7 8-13 6h-9v-2l-8 1v-22l1-18 2-6 12-5z" fill="#4C3762"/>
<path transform="translate(973,915)" d="m0 0 14 1 8 3 8 4 7 8 4 11 2 14v16l-3 20-8 36-12 55-5 13-6 5h-14l-8-3 1-8 7 1 10 1 5-5 3-11 5-29 2-5 2-13 3-10 3-16 4-17 2-13v-20l-4-16-4-5-7-5-10-3h-13l-3 1-1-8z" fill="#050506"/>
<path transform="translate(273,896)" d="m0 0h3l5 12 6 12 7 17 4 9-2 4-25 14h-2l-10-22-11-27 1-4 9-7 14-7z" fill="#FDBA27"/>
<path transform="translate(1024,884)" d="m0 0 4 2 25 12 29 13 31 15 11 5-4 1-5-1h-39l-12 3-10 5-4 3h-6l-2-7-1-20-4-10-8-11-5-6z" fill="#FC9548"/>
<path transform="translate(482,901)" d="m0 0h3l10 30 16 50 8 20 6 11 9 12 9 8 9 4 10 1 10-5 7-6 7-11 3-6 2 3 5 14 1 5 2 2-21 6-20 8-13 6h-17l-14-47-15-49-9-25-10-19-4-5 2-4z" fill="#D05515"/>
<path transform="translate(245,810)" d="m0 0h2l8 19 9 23v6l-12 9-17 11-4-5-10-25-3-8v-5l7-7 8-7 8-8z" fill="#FDBA27"/>
<path transform="translate(1e3 1144)" d="m0 0 6 1 5 5 3 10v14l-5 23-5 14h-2l-2-6h-7l1-7 2-7v-10l-2-5-4-3-8-1-6 3-6 5-6 7-5 3-1 2h-3v-2l-10 1 2-5 14-15 8-7 4-5 13-9 10-5z" fill="#F33045"/>
<path transform="translate(531,1059)" d="m0 0h9l12 5 11 8 5 9 3 14 1 8v9l-4 4-6 2h-5v-9l-3-11-4-7-4-3-7-1h-7l-6-4-12 1-6 4h-5l1-6 4-8 7-8 6-4z" fill="#F81610"/>
<path transform="translate(266,601)" d="m0 0 3 1 8 15-9 14-2 5-10 5-9 7-5 11-2 2h-6l-3 9-5 4 1-17-3-9-14-18-4-5-8-6-8-4 5-6 5-1 3 1 5 1 15 14 7 7 8 4 7-1 5-4 8-15 1-4h2l2-5z" fill="#C7712E"/>
<path transform="translate(814,862)" d="m0 0 6 1 7 8 4 10v10l-3 12-6 11h-2l-2 5-9 8-10 5-9 2 2 15 7 34 7 25 2 6v9l-7 6-6 3h-2v2h-3l-1-8 1-2h4v-2l6-2v-4h-2l-1-11h-2l-5-16-2-15-4-18-4-19v-8l7-3 13-5 8-6 6-7 5-9 3-7v-10l-3-7-7-9z" fill="#060607"/>
<path transform="translate(854,1104)" d="m0 0h33v1h-27l-1 8h-4l-3 10-2 6 17 2 9 4 5 1h3l-1 10-10 22-10 19-13 25-6 10-1 3 8 1 14 3h3l1-3 7 1 2 1v2h-2l-1 5-2 3-15-1-19-5-5-3-1-5 13-24 12-22 11-22 5-11 1-4-10-1-12-2-12-1-2-3v-6l6-14 4-8z" fill="#331211"/>
<path transform="translate(760,520)" d="m0 0 11 1 6 4 4 10v3l-10-3-4-1h-9l-13 4-5 3 19 1 10 3 9 5 7 8-1 7-4 4h-6l-14-7-8-2-10 1-12 3h-6l-5-4-1-2-2 4v-7l3-2 3-5 10-5h2l1-5 9-10 9-6z" fill="#737884"/>
<path transform="translate(722,685)" d="m0 0h12l12 2 12 5 13 9 9 9 7 11 1 3v8l-1 3-7 1-6-12-11-12-9-7-12-6-10-1-16 4-15 8-10 9-3 4-5-1-3-5v-6l3-5 11-9 17-9z" fill="#636572"/>
<path transform="translate(794,624)" d="m0 0 5 1 7 7 6 10 6 24v19l-3 10-5 5-6-4-7-8-6-13-4-15-1-16 3-14z" fill="#F41711"/>
<path transform="translate(1016,1089)" d="m0 0 5 2 20 12 19 10 26 12-2 1-1 5-16 32-1 21-2 3v-29l-4-12-8-14v-2l-4-2-7-7v-2h-3v-2l-5-1-6-3-16-3 1-7z" fill="#626371"/>
<path transform="translate(469,912)" d="m0 0 4 5 8 15 9 24 17 54 13 44 1 2-9 4-8 6-9 17-3 3-1 12v10l2 9 4 8 12 11 14 10 11 7 8 7 3 6 1 7-2 3-5-10-10-9-18-11-9-7-7-7-5-8-2-6-1-7v-17l1-4-2-1 3-5 3-11 1-7h1l1 6 9-10 9-7-1-7-11-30-9-28-11-37-7-19-6-16z" fill="#332541"/>
<path transform="translate(893,867)" d="m0 0h6l4 6v5h-5l-4 8h-2l-3 10-7 22-9 39-5 29-3 29v43h-8v-63l4-26h2l1-15 4-19 2-7 6-24 8-22 3-5h2l2-7z" fill="#09090A"/>
<path transform="translate(700,612)" d="m0 0 5 1 2 5-1 16-5 14-7 13-9 10-7 6-6 3h-5l-2-4v-14l5-16 10-19 8-9z" fill="#F61711"/>
<path transform="translate(1092,630)" d="m0 0 3 1 2 18 4 9 6 5 4 2h8l8-4 6-2 3 2 5 13 7 8 4 2h7l5-3 8-7 3 1 7 14 7 6 10 4 8-1 5-2h3l1 9-5 2h-19l-11-6-7-7-2-5-13 5-7 1-10-5-8-9-4-7v-2l-7 2h-13l-10-4-6-5-7-14-1-4v-9l4-7z" fill="#34120F"/>
<path transform="translate(1166 1e3)" d="m0 0h7l5 3 4 5 4 11v15l-3 16-4 10-6 5-8 1-7-4-3-5v-8l3-10 1-7v-8l-1-5v-11l4-6z" fill="#FEA372"/>
<path transform="translate(635,1054)" d="m0 0 9 2 8 5 8 9 7 14 3 10-1 5h-2v2l-7-2-2 5h-1l-3-13-5-8-5-4-2-1h-9l-6 2-3 9-4 18-1 11h-1v-14l1-3-7 1-4 3-1 5h-1v-11l5-21 5-12 3-4 6-3 6-4z" fill="#EA2131"/>
<path transform="translate(770,1066)" d="m0 0 9 1 3 1v9l-7 36-6 21-4 11-6 13-4 1-4-4-7 2-4 2-1-2 9-19 9-27 7-28 5-15z" fill="#F43045"/>
<path transform="translate(286,991)" d="m0 0 10 1 6 3 8 9 1 9-5 8-9 7-10 4-4 1h-11l-7-6-3-7v-9l4-8 7-7 8-4z" fill="#FEA373"/>
<path transform="translate(855,1113)" d="m0 0h33l25 3 24 5 21 6-1 5-8 17-3 1-5-5-4-3-13-4-12-1v-1l10-1-8-2-4-2v-2l-5 1-7-2-9-2-17-2-3-1-1 2v-2l-7-1-4 3h-6l2-8z" fill="#ED2131"/>
<path transform="translate(819,807)" d="m0 0h17l6 1 26 1 29 5 24 7 8 4 11 4 15 9 9 7 7 8 6 6-1 2-17-8-10-6-24-11-25-9-18-5-16-4-28-3-32-1 5-5z" fill="#8C8AA1"/>
<path transform="translate(590,1202)" d="m0 0h1l-1 7-5 9-8 8-10 6-10 4-10 2h-15l-10-2-13-6-5 1-8 5-4 5-10 8-11 5-6 1h-10l-10-3-11-7-3-3-4-2 10-1 17 4h15l12-3 8-4 12-11 1-1h15l13 3h9l21-5 12-6 11-10z" fill="#261A31"/>
<path transform="translate(1079,728)" d="m0 0h6l3 11 7 6 7 3 9 2h18l4-2 5 1 8 13 6 4 6 2 8 1 11-2 10-5h5l3 5 4 9 5 5 7 1 12-6 3-1v-5h1l1 14-10 5-7 2-9-1-6-4-7-8-1-5-12 4h-20l-11-4-9-8-2-3v-3h-27l-12-4-11-7-6-8-1-9z" fill="#34120F"/>
<path transform="translate(353,1178)" d="m0 0 5 1 6 7 10 18 10 20 3 4v2h3l4 8-2 1h-6l-6-4-8-14-12-23-3-2-3 12-5 6-4 2-3 3h-7l-4-2 2 10 5 14-3 5-4 1-6-14-4-14-1-15 4-6h8l13 8 1-15 3-10z" fill="#331312"/>
<path transform="translate(777,504)" d="m0 0 4 2 7 7 2 3h11l1 4-1 4v14l-2 13-4 9v2h-3l-2 4-6 1v-9l-7-8-10-5-8-2-20-1 4-4 10-4 5-1h9l11 3 3 2-5-13-5-3-11-1h-4l1-4 5-4 13-2 7-1z" fill="#9299A9"/>
<path transform="translate(885,878)" d="m0 0 1 3-5 11-6 19-5 23-2 6-3 14-2 15h-2l-1 12-2 14-1 23-1 42-9-1-1-1-1-8v-21l2-25 4-27 8-38 6-21 12-27z" fill="#FAFAFB"/>
<path transform="translate(1084,1126)" d="m0 0 7 1 14 5-2 1-1 5-14 36-8 21-1 4-7-1-9-4 1-7 1-3 1-21 13-26z" fill="#908EA5"/>
<path transform="translate(562,438)" d="m0 0 7 6 8 7 15 14 7 7 4 5-1 4-4 19-1 7h-3l-34-34v-23l1-11z" fill="#F4FDFD"/>
<path transform="translate(216,932)" d="m0 0h3l8 15 7 20 2 4v6l-9 5-17 8h-2l-7-19-6-20 1-5 14-10z" fill="#FDBA27"/>
<path transform="translate(976,496)" d="m0 0h2l-1 10-5 22-9 6-12 6-22 13h-2v-12l1-19 9-6 11-6 19-10z" fill="#E5FCFD"/>
<path transform="translate(517,635)" d="m0 0 9 5 13 8 12 5 10 2h11l8-1-5 11-1-3 1-3-4-1v2l-5 4-16 4-12 4-11 6v2l-7 4-5 11v8l-2-2-4-15v-8l6-20 1-5z" fill="#FDBB28"/>
<path transform="translate(510,367)" d="m0 0 9 1 10 3 16 9 9 5 3 4v16l-2 16-8-6-14-10-19-12-6-4v-21z" fill="#E6FCFD"/>
<path transform="translate(1032,440)" d="m0 0h16v7l-5 16-9 3-21 6-21 8h-2l1-12 4-19 7-3h5v-2z" fill="#E2FAFB"/>
<path transform="translate(300,1032)" d="m0 0h9l8 6 7 11 5 11 3 11v7l-3 5-12 5-6-1-5-6-13-31v-9l3-6z" fill="#FDA372"/>
<path transform="translate(610,486)" d="m0 0 5 5 8 14 3 6 1 8v12l-1 3-1 14-2 7-3 25h-2l-6-10-10-14-5-6v-8l3-13h3l11 14 4 6 2-5v-6l-10-13-7-9 5-24z" fill="#F8FAFA"/>
<path transform="translate(1036,473)" d="m0 0h3l-2 9-6 19-5 3-25 10-16 8h-3l2-16 3-14 6-4 29-11z" fill="#E2FBFC"/>
<path transform="translate(636,1046)" d="m0 0 7 1 10 4 10 9 7 11 6 15 4 17 2 21-2 18-3 11 1 4 15 11 2 2-1 7-3 6h-3l-4-4 1-6-11-7-9-8v-6l4-8 3-12v-23l-4-19-5-13-7-11-8-7-10-4-9 2-5 4h-3l2-4 5-4 7-3z" fill="#030202"/>
<path transform="translate(509,400)" d="m0 0 5 2 21 14 14 11 5 4-1 19-2 14-7-6-11-10-17-13-6-5-1-11z" fill="#E6FCFD"/>
<path transform="translate(1095,693)" d="m0 0 5 5 6 8 8 4h15l5-2h7l6 11 6 4 3 1h12l13-7 4 1 7 14 8 7 5 2h7l6-4 4-2 1 13-1-2-5 3-5 1h-7l-9-3-6-4-7-7-3-5-14 3h-7l-10-3-9-6-5-6h-24l-10-4-7-8-2-4v-8z" fill="#34120F"/>
<path transform="translate(405,838)" d="m0 0h3l3 9-16 3-9 7-3 1v2l-5 5-7 10-6 14-1 3-1 28-4 1-8-23-3-6-4-11-4-7 1-4 15-8 19-10 16-7z" fill="#7CD3E1"/>
<path transform="translate(750,578)" d="m0 0h2v2h8l19 8 10 8 7 8v2h2l4 7v4h-11l-2 1-5-5-10-8-4-6-10-5-14-4-22 5-7 4-4 4h-2l-1 3-4-2h-10v-2l5-5 8-6 11-7 8-3 13-2z" fill="#636572"/>
<path transform="translate(221,736)" d="m0 0 2 1 6 16 7 22-5 5-20 14-4 2-7-25-3-12 1-4 11-9 10-9z" fill="#FCB927"/>
<path transform="translate(572,1162)" d="m0 0h1v12l-4 11-9 10-8 6-9 4-12 3h-14l-7-4-6-9-3-8-1-15 2-3 11-1 4 3 4 15 4 6 3 2h11l6-4 6-9 2-6v-12l2 1v12l-1 5 5-2 8 1 3-3z" fill="#9C202E"/>
<path transform="translate(91,764)" d="m0 0 4 1-1 16-3 23-10 9h-30l1-7 8-16 7-9 10-9z" fill="#4A5C4F"/>
<path transform="translate(240,1137)" d="m0 0 2 1-1 7h6l5-5v26l1 5-8 3-18 4-23 2-5-16h2l1-4v4h6l15-15 15-11z" fill="#9B202D"/>
<path transform="translate(436,1143)" d="m0 0h9l8 6 5 10 3 11v16l-3 6-3 3h-9l-5-3-5-6-5-11-3-11v-10l5-9z" fill="#331314"/>
<path transform="translate(429,1113)" d="m0 0 16 2 16 5 8 4 10 9 8 13 5 17-2 9v11l1 2v10l-5 16-3 4-9-1 2-5 5-12 2-10v-20l-4-15-5-10-7-8-14-7-10-3-7-1h-11l-5 3-5 6-2 3-9-2 2-6 9-10h8z" fill="#030203"/>
<path transform="translate(658,736)" d="m0 0 7 1-5 4-8 8v10l1 1 7 1-1-8 9-8h6l4 6v16l-4 10-7 8-6 3h-9l-7-3-6-7v-14l5-9 3-3v-7l2-3v2l2-1 1-4 2-2z" fill="#B2B2B7"/>
<path transform="translate(419,917)" d="m0 0 5 4 4 13 7 36v21l3 1-9 4h-10l-2-4-4-27-1-19 2-14z" fill="#4C3761"/>
<path transform="translate(1149,969)" d="m0 0h11l7 3 5 6 3 9-1 7-4 6-9 5-4 2h-11l-9-6-4-6v-11l4-8 9-6z" fill="#FEA372"/>
<path transform="translate(565,396)" d="m0 0 4 2 10 10 11 14 10 15 8 14v7l-2 9-7-6-15-15-8-7-13-11 1-20z" fill="#E5FBFD"/>
<path transform="translate(930,1243)" d="m0 0 10 3 3 5 5 3v2l4 2 1 1 13 1 2 5 2 2-9 7-13 4h-13l-12-4-7-8-3-10v-12l3 4 6-3z" fill="#9C202E"/>
<path transform="translate(982,455)" d="m0 0h3v8l-5 22-32 16-18 10h-1v-12l3-5 15-15 14-11 15-10z" fill="#E2F9FB"/>
<path transform="translate(1009,1140)" d="m0 0h5l6 9 2 10-1 23-4 16-5 15-11 25-8 15-7 10h-2l-2 4-7 7-5 2-3-4 1-4 11-11 11-18 12-25 7-21 4-19v-14l-3-10-4-4-4-3z" fill="#030203"/>
<path transform="translate(187,852)" d="m0 0h3l5 14 7 18 2 4v6l-12 11-7 5h-3l-8-23-6-17 1-4 5-5 11-8z" fill="#FDBA27"/>
<path transform="translate(811,548)" d="m0 0 1 4v2l9-3 7-1h13l10 3 8 5 8 9 5 11 2 8v11l-3 9h-6l-1-2-2-15-7-11-7-7-12-5-11-2h-17v-6l2-7z" fill="#737884"/>
<path transform="translate(78,895)" d="m0 0 4 1 8 16 8 18 4 5 3 2v5l-12 5-8 6-9 10-2 3h-2v-35l2-23 3-12z" fill="#47584D"/>
<path transform="translate(746,855)" d="m0 0h3l-2 10-11 45-4 21-2 18v27l3 19 5 14v5l-2 2-5 1h-7l-8-3-1-1 1-10 6-32 6-45 8-40 5-22 1-7z" fill="#D05515"/>
<path transform="translate(404,1133)" d="m0 0h5l3 2-1 7 1 19 5 19 5 12 7 12 9 10 8 5 3 1h13l8-4 4-3 9 2-3 5-7 6-10 4h-13l-10-3v-2l-5-2-11-11-8-13-7-15-6-23-1-7v-15z" fill="#331212"/>
<path transform="translate(651,818)" d="m0 0h28l10 5v4l-5 4h-8l-3-1h-20l-21 5-20 8-14 8-11 9-6 7-1-4 4-8 9-11 10-8 15-8 7-3h6v-2l13-3z" fill="#8D8BA2"/>
<path transform="translate(823,1079)" d="m0 0 7 1 15 4 2 2v9l-8 29-18 69-3 8-7-1 1-10 9-33 9-36 8-28-3-2-11-3-1-5-3-1z" fill="#030202"/>
<path transform="translate(749,938)" d="m0 0h6l5 9 11 41 5 15 7 9 5 4 3 2 1 5 2 1h-4v10l-7 3h-6l-4-6-12-41-9-34-2-12 1-5z" fill="#793113"/>
<path transform="translate(417,894)" d="m0 0 8 1 10 9 7 10 8 18 4 10 7 21 2 7 2 12 3 10v5h2l2 9 7 32 3 12 2 10 1 18-4 6h-2l-2-10-5-34-5-28-10-42-10-30-8-16-7-13-9-11-6-5z" fill="#F2F4F4"/>
<path transform="translate(470,384)" d="m0 0 8 1 19 8 4 3v28l-4-2-17-9-12-4-12-2v-11l3-7 3-4z" fill="#E4FBFC"/>
<path transform="translate(1062,468)" d="m0 0h18l9 3 2 7v11l-1 4h-18l-16 2-16 4 3-9 5-18 2-2z" fill="#E2FAFC"/>
<path transform="translate(406,896)" d="m0 0 2 1-5 5-3 22-1 21-1 37v18l1 25 4 32 4 21 12 3 8 1 2 12-6 4-7 1-13-4-5-44-2-24-2-49-2-31v-18l3-16 5-11z" fill="#D05415"/>
<path transform="translate(595,887)" d="m0 0 2 3 7 25 6 26 5 29 5 33 4 15 4 7 8 1 2-1 24-2h20l15-1 3-1-1-6 3-1v8l-8 3-36 8-10 2h-9l-10-6-7-7-4-9-6-24-12-60-5-35z" fill="#322541"/>
<path transform="translate(975,944)" d="m0 0h6l5 4 6 14 2 10v18l-3 17-4 11-3 2-12-1 1-9 4-14 2-13v-15l-3-13h-6l-2-9z" fill="#763012"/>
<path transform="translate(527,1054)" d="m0 0h19l10 3 10 6 6 7 5 13 3 18v13l-3 7-11 4h-3l-1-8 8-3 1-2v-9l-3-18-4-10-5-5-11-7-8-3h-9l-12 4-7 6-6 9-2 5-3 1v-16l6-7 8-5z" fill="#030202"/>
<path transform="translate(981,1180)" d="m0 0h7l1 2v9l-5 14-7 12-9 11-9 7-10 4-1-1v-7l3-10 6-12 12-16 9-9z" fill="#4C3761"/>
<path transform="translate(1024,513)" d="m0 0h2l-2 9-4 12-1 7-16 6-25 10h-2l1-14 2-9 25-13z" fill="#E5FCFD"/>
<path transform="translate(594,717)" d="m0 0h1l2 9 3 1 4 8 8 6 10 5 15 4-2 5-4 8-1 8 4 13 1 4h-5l-5-4-4-8v-2h-2l-3-6v-2l-4-2v6h-3l-6-12-2-2-3-10v-2l-5-8-1-13z" fill="#FAAD0C"/>
<path transform="translate(511,442)" d="m0 0 5 3 16 13 12 11 6 6v9l-2 14-4-2-18-14-16-12z" fill="#F8FAFA"/>
<path transform="translate(1063,849)" d="m0 0h3v2l8 2 8 4 14 6 10 4-1 5-5 11-2 5-5-1-14-6-11-5-13-5v-4l4-8z" fill="#7DDDEA"/>
<path transform="translate(659,1098)" d="m0 0 8 3v-2l4-1 2 11v23l-3 12-6 13-1-2-5-2h-6l-7 2-3-2 2-2 1-7-2-5-6-12 1-4 4 1 6 8 3 2 5 1 2-8v-26z" fill="#F23045"/>
<path transform="translate(960,1030)" d="m0 0 10 2 2 2v27l2 9 3 8-1 7-3 6-5 1-7-2v9l-5-1-3-5v-8l4-26 1-20-3-1 1-4z" fill="#732F13"/>
<path transform="translate(763,757)" d="m0 0h2l-2 6-12 25-12 32-4 2h-3v-17l1-38 15-6z" fill="#3F444E"/>
<path transform="translate(753,961)" d="m0 0 2 3 12 44 6 20v3l-4-1-3-3-10-28-1 3-1 19-3 6-4 4-8 1h-9l-15-2-8-4-2-3 1-3 7 3h28l3-3 1-6-6-1v-1h7l5-39 1-6h2z" fill="#33243E"/>
<path transform="translate(951,920)" d="m0 0h7l-5 5-6 7-8 13-8 15-13 32-7 23-7 33-6 35 6 1-2 3h-6l-5-4-1-8 5-25 7-26 12-36 10-25 12-24 10-15z" fill="#332542"/>
<path transform="translate(402,855)" d="m0 0h13l8 2 14 7 6 5-1 4h-9l-10-2h-15l-13 5-8 6-5 6-2 5-2 10-5 4v-18l3-9 6-7 1-4h2l2-4 7-6z" fill="#8B889F"/>
<path transform="translate(712,486)" d="m0 0h1v7h13l6 3 6 7 2 5v7l-5 12-9 13-5 6-5 1-2-37-2-16z" fill="#717682"/>
<path transform="translate(817,583)" d="m0 0h10l8 4 10 9 5 6 6 12v6l-5 6h-7l-5-4-3-8-2-1v-3l-4-2-5-4v-2l-10-1-6-5 1-7z" fill="#747985"/>
<path transform="translate(835,986)" d="m0 0h1l-1 17v14l3 17 8 16 1 9-9-1-21-6-4-2 2-9z" fill="#D15515"/>
<path transform="translate(539,1086)" d="m0 0 7 1 6 5 4 8 2 9-1 9h5l2 5-1 2 2 1h-13l-2-2-3-21-3-6h-6l-3 5v7l4 10 6 8 8 5 13 7 7 6-1 4-7-4-6-4-9-4-6-5-4-1h-4l-6-9-5-11v-9l3-8 8-7z" fill="#331314"/>
<path transform="translate(625,1045)" d="m0 0h14v1l-12 2-12 8-4 5-6 12-5 21-2 16v18l2 15 5 16 4 10 7 9 7 6 4 2h22l-2 2-5 1h-12l-11-4-9-7-5-5-6-9-5-12-3-11-1-7v-29l3-15 7-20 7-11 8-8z" fill="#322441"/>
<path transform="translate(990,927)" d="m0 0 4 1 6 4 4 5 4 16v20l-4 23-4 15-3 16-2 7-2 11-2 8-5 27-3 8-5 5h-6l2-6 6-15 9-28 7-32 3-20 1-30-2-14-5-12-3-6z" fill="#EBEDEF"/>
<path transform="translate(1072,826)" d="m0 0 11 1 8 3 9 2 8 3 12 4-3 10-5 10-9-3-12-5-9-4-13-5-1-4 3-7z" fill="#7CDCEA"/>
<path transform="translate(1038,873)" d="m0 0 9 3 11 5v2l7 1 5 3 8 3 12 5 23 10 9 4 14 8 9 5-2 6-5-1-24-11-8-4-26-12-20-9-14-7-10-4v-4z" fill="#B2242E"/>
<path transform="translate(681,479)" d="m0 0 4 1 2 2 1 10-4 9-1 5h-2l-1 6-2-3-4 5-1 3v13l4 10 8 12 2 4h-6l-8-7-2-3-1-10h-2l-5-7-1-5 1-6-3 1v-6l4-12 6-11 9-10z" fill="#868B99"/>
<path transform="translate(970,924)" d="m0 0h5l-5 5-10 9-8 11-13 24-6 15-5 17-3 19-1 16-1 5-4 11-3 21-9-1 5-28 6-27 8-27 8-19 11-24 9-14 10-10z" fill="#D15616"/>
<path transform="translate(1065,501)" d="m0 0h18l-2 4-9 9-6 4-11 7-16 8-10 3v-5l7-21 5-3 13-4z" fill="#E0F8FA"/>
<path transform="translate(558,483)" d="m0 0 7 6 25 25 3 4-1 13-1 8h-3l-9-10-23-23-2-1v-3h2l1-15z" fill="#F8FAFA"/>
<path transform="translate(812,1087)" d="m0 0 1 2-8 24-13 37-8 26-3 14-1 9-2-3-4 1-5-2-2-2 1-8 16-38 16-39 7-13z" fill="#322541"/>
<path transform="translate(459,415)" d="m0 0 11 3 11 4 14 8 6 4 2 20v8h-4l-14-12-14-14-10-15z" fill="#F1FCFD"/>
<path transform="translate(968,540)" d="m0 0h2l-2 12v10l-19 9-13 8-10 6h-2l1-17 1-4 24-14z" fill="#F7F9F9"/>
<path transform="translate(614,1100)" d="m0 0 5 1v21l2 12 8 16 6 1 1 3-9-1-4 4-2 5h-2l-1 3-5-5-5-15-2-10-1-11v-14h2v-5l5-4z" fill="#F33045"/>
<path transform="translate(206,1186)" d="m0 0 12 1 6 16 9 25 6 13 10 4 10 2v1l7 1v1h-15l-15-4-14-7-6-18-6-19z" fill="#4D3863"/>
<path transform="translate(695,610)" d="m0 0 12 1 5 7 2 3h1v11l-4 1-2 7-5 3-1-2 2-7 1-16-2-5-7 1-10 6-7 9-10 19-4 14v14l1 3 4 2h-8l-6-5v-8l3-16 5-15 11-21 6-2 4-2z" fill="#230F13"/>
<path transform="translate(809,1165)" d="m0 0 3 1 3 5h2l1-3-1 7-7 27-1 1-14-1-9-2 2-12 6-21 1 4 7-3z" fill="#D53035"/>
<path transform="translate(773,860)" d="m0 0h9l8 3v2l4 2 2 2 3 10v14l-1 2-8 4 1-6v-12l-4-8-5-3h-10l-8 1-1 13-1 27-8 1v-22l1-18 2-6 12-5z" fill="#070303"/>
<path transform="translate(503,1216)" d="m0 0h6l10 6 12 4 8 1v1h-9l-15-3h-13l-9 9-7 5-12 4-5 1h-15l-17-4-10 1-3 2-1 7-5 9-1 1h-5l-1-3 2-11 4-6 12-7 5-1 15 5 4 1h16l10-4 16-12z" fill="#332542"/>
<path transform="translate(164,783)" d="m0 0h2l6 17 3 8 2 5v5l-12 10-5 4h-2l-10-29 2-4 9-11z" fill="#FBB827"/>
<path transform="translate(861,696)" d="m0 0h1l2 7 12 5 6 5 2 4v11l-2 9-5 8-9 8-14 6-4 1h-20v-1l9-1v-1l7-1 3-1 1-3 19-8 5-12-2-4-10-12-4-8 1-6h2z" fill="#9097A6"/>
<path transform="translate(494,889)" d="m0 0h5l4 5 4 11v3h2l6 19 5 14 8 34 2 9 2 12v14l-2-2-6-27-14-47-8-26-5-12-6 1-9 5-5 4-4-1-5-5 5-2 7-1z" fill="#EFF1F2"/>
<path transform="translate(595,1197)" d="m0 0 6 1 4 2 5-1h48l20 5 3 1 12 1-6 7-8 6-7-3-14-11-7 1-10 4h-14l-12-3-12-5-8-3z" fill="#261A31"/>
<path transform="translate(717,1059)" d="m0 0 2 1v5l1 2h-2l1 2v8l-4 26-1 12v32l1 11h-5-3l-2-9v-33l3-23 1-17 5-14z" fill="#240F12"/>
<path transform="translate(1e3 1118)" d="m0 0 5 1 15 1 12 7 10 11 8 16 2 7v13l-4-5-9-14-11-12-14-12-9-5-5-6z" fill="#8D8BA2"/>
<path transform="translate(261,1079)" d="m0 0 4 1 8 14 8 11-1 3-13 5-10 5h-2l-4-18-5-12v-4z" fill="#F51611"/>
<path transform="translate(1099,1033)" d="m0 0 6 1 12 4 1 3-4 8-4 15-1 7-3 1-12-6-11-4 1-4 10-15z" fill="#F51711"/>
<path transform="translate(967,947)" d="m0 0h2l2 7 2 1-3 3h-2l-1 4-7 14-7 23-2 10 21 3v7h-23l-5-3-2-3v-9l3-13 3-5 6-18 8-14z" fill="#0B0809"/>
<path transform="translate(140,677)" d="m0 0 9 1 4 4 9 17 4 2h6l3-2 2-4 7 1v4h-2l-4 20-15 15h-1l-3-19-4-15-4-9-4-7-8-5z" fill="#C6702D"/>
<path transform="translate(997,655)" d="m0 0 5 1 13 8 4 2-2 5-5 7-8 6-9 4h-12l-4-2 2-5 14-23z" fill="#7DDBE9"/>
<path transform="translate(1128,843)" d="m0 0 4 1 11 5 9 4v2l7 2v4l-5 11h-2l-1 3-8-1-5-3-10-4-8-4 2-6 5-9z" fill="#7DDCEA"/>
<path transform="translate(725,1150)" d="m0 0 2 4 1 4h8l4-3 1 3 8-4 4 2 3 2 2 1-8 11-7 7-8 5h-7l-7-8-4-9v-3h2v-7h2v-2h3z" fill="#D12E35"/>
<path transform="translate(1141,1141)" d="m0 0h16l-1 7-6 19-7 25-5 3-9 4-3-1 1-6 8-20 10-28 1-2h-5z" fill="#636572"/>
<path transform="translate(1152,821)" d="m0 0 4 2 5 8v2l4 1 3 3h3 16l5-2 4 1v2h2l-1 5-5 4h-2l-2 5-5 7-4 2-2-7v-3l-4-2v-2l-4-2-4-3-18-5-11-5-1-2 7 1 2-1v-2l-5-2 1-3z" fill="#FC9648"/>
<path transform="translate(554,1077)" d="m0 0h3l6 2h2l1-2 3 8 3 18v9l-4 4-6 2h-5v-9l-3-11-4-7-4-3-7-2 3-5 5-2 4-1z" fill="#EC2131"/>
<path transform="translate(732,832)" d="m0 0h2l-1 7-5 18-5 14-10 5-5 6h-2v-29l11-10 6-4 7-6z" fill="#F5F5F6"/>
<path transform="translate(985,1172)" d="m0 0 7 1 4 4 1 4v10l-6 18-7 12-9 11-9 8-8 5-4-1-2-6 14-9 8-9 8-13 5-12 1-4v-11l-5-1 2-6z" fill="#040202"/>
<path transform="translate(707,653)" d="m0 0 5 3 2 3v6l-6 9-12 14-11 9-9 4h-3l-1 3-3-12v-4l11-4 11-8 9-11z" fill="#40454E"/>
<path transform="translate(624,968)" d="m0 0 2 4 8 23 6 7 13 5 3 1h15l8-4 3-3 2-4h1l-1 12-2 6-50 3-4-17-4-28z" fill="#D05617"/>
<path transform="translate(420,912)" d="m0 0 7 1 5 4 4 12 4 20 2 19 1 3v19l-1 1h-7l-1-21-7-36-4-13-3-1z" fill="#060303"/>
<path transform="translate(613,637)" d="m0 0 5 3 2 3v6l-7 6-11 7-7 8-2 9-5 3-5-6v-9l7-14 8-8 7-4 7-2z" fill="#9097A6"/>
<path transform="translate(636,1077)" d="m0 0h6l6 4 5 6 4 11 2 20v9l-3 8-7-1-7-8-1-2-5-2-1-6 2-1h7l5 5v-13l-2-12-3-5v-2l-8-4z" fill="#020102"/>
<path transform="translate(804,595)" d="m0 0h5l6 5 10 2-4 1 8 18 3 10v9l-5 7h-3l-2 2-4-16-5-14-9-17-3-4v-2z" fill="#8E8EA3"/>
<path transform="translate(860,1191)" d="m0 0 1 3-2 4v3l5 2h6l5 2 3-4-1 5-8 23-4 1-22-5 1-5 12-21z" fill="#BA2030"/>
<path transform="translate(1115,873)" d="m0 0h4v2l6 1 9 5 10 4-2 7-4 6h-2l-1 4-6-1-13-4-8-4-1-4z" fill="#7CDCEA"/>
<path transform="translate(493,1066)" d="m0 0h1l1 6 7-5-3 9-6 9-1 1-1 12v10l2 9 4 8 12 11 14 10 11 7 8 7 3 6 1 7-2 3-5-10-10-9-18-11-9-7-7-7-5-8-2-6-1-7v-17l1-4-2-1 3-5 3-11z" fill="#322440"/>
<path transform="translate(918,528)" d="m0 0h1v14l-2 18-17 12-3 2-2-14v-8l3-6 6-5 4-5z" fill="#F9FBFB"/>
<path transform="translate(800,623)" d="m0 0 5 3 14 7 4 16 3 25-2 18-2 7-8 2-3-2 4-6 2-8v-19l-6-24-6-10-6-6z" fill="#341210"/>
<path transform="translate(520,1082)" d="m0 0h6l5 3 1 2 4 1-7 6-3 8-1 9h-1l-1-9-6 3-13 2-2 1 1 8-3-4-2-6 1-10 3-10 1 2 6-2 5-3z" fill="#ED2131"/>
<path transform="translate(717,1101)" d="m0 0 4 3 1-1 2-1 4-1v9l-2 11-1 23v10l-4-1v2h-2v7h-3l-3-15v-22l3-23z" fill="#F23045"/>
<path transform="translate(874,645)" d="m0 0 2 4 12 8 8 8 3 7v8l-6 8-3 1-5-3 2-4 4-1v-2h2l-3-3-16-9-8-7-2-7 4-6z" fill="#9198A8"/>
<path transform="translate(902,871)" d="m0 0 13 3 13 4 10 4 8 4 10 4 10 5 1-7 5-13h1l-1 9-4 8-1 5 6 2-2 4h-7l-20-8-19-8-18-7-4-1-1-7z" fill="#773113"/>
<path transform="translate(427,1021)" d="m0 0 3 1-3 13 1 11 3 14v6h2l3 11 1 18-1 1h-9l1-5-2-14-3-9-4-21v-16l3-7z" fill="#753013"/>
<path transform="translate(689,935)" d="m0 0 3 1 2 4-1 5-5 5h-27l-20-1-2-5v-5l35-2z" fill="#332542"/>
<path transform="translate(953,507)" d="m0 0 4 1-10 8h-2v2l-6 5-1 5 1 7 2 1 13-4 14-7 4-5v8l-9 6-12 6-22 13h-2v-12l1-19 9-6 11-6z" fill="#F3FDFD"/>
<path transform="translate(881,839)" d="m0 0 9 1 20 7 7 3 11 3 12 5 10 5 4 1v2h4v3l9 3 5 3-2 9-4 11-5-2 2-10-5-6-19-11-24-12-20-8-12-4z" fill="#EDEEF0"/>
<path transform="translate(870,1172)" d="m0 0h1v5l9-4 3-1 2 1 1 5 3-1-3 9-7 15h-2l-2 5-5-2h-8l-4-3 1-5 4-11z" fill="#D42F35"/>
<path transform="translate(601,528)" d="m0 0 5 5 8 10 4 8 2 5v4h2l-2 20h-2l-6-10-10-14-5-6v-8l3-13z" fill="#F1F8F9"/>
<path transform="translate(611,1027)" d="m0 0 2 4v5l-2 2-27 8-22 8-4 2h-7l-5-1-25-1 4-4 1 2 2-2v3l17-1 22-10 27-9 9-1v-2z" fill="#732F13"/>
<path transform="translate(1098,1131)" d="m0 0 7 1-2 1-1 5-14 36-8 21-1 4-7-1-4-3 9-21 16-33z" fill="#656875"/>
<path transform="translate(777,930)" d="m0 0h3l4 23 4 16 2 9 2 15 3 12h2l1 3v8h2v4l-6 3h-2l-2-8-5-28-10-41-1-11z" fill="#F3F4F5"/>
<path transform="translate(322,1224)" d="m0 0 2 3 6 16 4 10 1 7-6 5-7 2-11-28-2-6 1-4v2l8-4h4z" fill="#9C202E"/>
<path transform="translate(807,1040)" d="m0 0 2 1 2 5 2 1 1 3 20 6 9 2 13 1h9v8l-3 2h-12l-18-3-24-9-3-3-1-5z" fill="#763115"/>
<path transform="translate(509,1168)" d="m0 0 6 1 3 5 3 15 1 4 4 2v3l-8 1-1 5-5-1-6-7-4-5-2-12v-7l2-3z" fill="#B92030"/>
<path transform="translate(782,673)" d="m0 0 10 20 7 8 5 4 4 2-6 12-1-2h-6l-9-7-6-10-4-10v-8l4-6h2z" fill="#40454E"/>
<path transform="translate(333,1090)" d="m0 0h11l5 5v3l-13 3-8 5-6 7-5 8-2 1h-7l-2-2v-6l5-9 9-10z" fill="#8D8BA2"/>
<path transform="translate(692,1008)" d="m0 0h1v7h6l2 2-1 5-3 1-20 1h-15l-24 2h-6v-8l15-2 34-2 11 1z" fill="#763114"/>
<path transform="translate(770,1066)" d="m0 0 9 1 3 1v9l-5 27-1-4-6 1v2h-10l-1 2 2-11 6-21z" fill="#EC2131"/>
<path transform="translate(635,1054)" d="m0 0 9 2 8 5 4 4 3 8-2 2-10-2-6-1-11-1-1-2-5 1v2l-6 3h-3l-1-5 5-8 6-3 6-4z" fill="#F71610"/>
<path transform="translate(539,1130)" d="m0 0 7 2 7 6 9 4 9 6 3-2 5 8 3 11v10l-3 9-2-2-7 8-5 6-11 6 1-4 8-7 6-8 3-9v-12l-5-10-7-6-16-8-6-4z" fill="#240F13"/>
<path transform="translate(796,871)" d="m0 0 3 3 2 8v11l-3 11-4 6-8 7-13 4-10 2-7-1-3-7v-26l1-8h1l-1 31 8-1v2l12-2 11-6 7-8 3-2h3v-16z" fill="#722E12"/>
<path transform="translate(607,1038)" d="m0 0h4l-2 7-5 5-20 8-15 4-4 1-9-5-4-2 8-2 18-7z" fill="#34243E"/>
<path transform="translate(343,1122)" d="m0 0 5 2 1 3-8 1-6 3-6 12-1 17v8l-2-1v-2h-2l-7-8-9-7-5-2h-9l-5 2-4 4 2-5 5-6 5-2h13l8 4 4 3 2-8 6-12 5-4z" fill="#322440"/>
<path transform="translate(749,939)" d="m0 0h2l1 13 2 15h-2l-1 15-4 28-1 2h-7v-16l7-46 2-10z" fill="#0B0503"/>
<path transform="translate(937,1029)" d="m0 0h22v3l-4 5-15 1-5 7-3 18-1 20-4-4-3-1v-28l3-10 6-8z" fill="#070405"/>
<path transform="translate(279,1117)" d="m0 0h9v2l6 1 10 2-1 6-4 4-19 1-10 4-5 4-4 6h-1v-7l4-9 4-6 7-6z" fill="#8C8AA1"/>
<path transform="translate(428,1024)" d="m0 0h1l1 5 10-1 5 3 3 7 4 20 2 14 5 16 5 9-5-1-5-6-6-18-6-28v-4h-14v6h-1l-1-11z" fill="#32243F"/>
<path transform="translate(708,1080)" d="m0 0h1v13l-3 23v33l4 18 6 12 4 5 5 5-5-2-11-10-6-10-4-13-1-14 2-23 5-26z" fill="#312440"/>
<path transform="translate(1043,895)" d="m0 0 6 1 35 16 29 14 11 5-4 1-5-1h-39l-12 3-10 5-4 3h-4v-2l4-1 4-5 10-5 6-2 14-1 18 1 1-3-11-3-15-7-16-6-14-9v-2z" fill="#F7BB58"/>
<path transform="translate(1040,570)" d="m0 0h4v2l-24 13-23 13-25 14-34 20-7 4 1-5 13-8 22-14 15-9 24-13 27-14z" fill="#AD212F"/>
<path transform="translate(968,1163)" d="m0 0 2 1-17 16-8 11 3-1h7v2h3l2-4h3l-11 15-4 4-6 10-12-1-2-1 1-5 4-9 8-10 9-10 7-8z" fill="#D42F35"/>
<path transform="translate(349,587)" d="m0 0 13 1 4 11 5 8v2l-13 5-5-1-14-8 2-1 1-4 4-6 1-4h2z" fill="#C6702D"/>
<path transform="translate(821,1086)" d="m0 0 10 3 8 3-6 22-6-1h-3v2l-5 1-2 2-4 2-3 5-1-2 10-30z" fill="#EA2131"/>
<path transform="translate(534,874)" d="m0 0 3 1 13 39 2 4-7 4-3-1-14-33-3-8v-2z" fill="#77CFDD"/>
<path transform="translate(127,646)" d="m0 0h4l1 7-8 7-5 2h-8l-1-1h-7l-10 7h-8l-4-2-1-5 3-2 9-2 10-8 7 1 4 2 7-1z" fill="#050506"/>
<path transform="translate(878,1248)" d="m0 0 7 6 6 8 8 11 8 7 12 11 14 7 12 2h13l-3 2-9 3h-9l-13-4-12-7-12-11-7-7-9-14-6-12z" fill="#261A31"/>
<path transform="translate(635,1086)" d="m0 0h6l5 5 3 7 1 9v14l-6-5h-7l-5 1-1-4v-17l3-9z" fill="#4C3761"/>
<path transform="translate(799,860)" d="m0 0h14l-1 7 7 6 3 5 1 4v10l-4 9-7 11-7 7-9 5-4-1 8-6 7-10 5-11 2-8v-8l-3-8-5-4-6-4z" fill="#F4F5F5"/>
<path transform="translate(346,521)" d="m0 0 4 1 10 11 3 1h7l10-5 10-7h5v6l-7 7-8 5-6 3h-14l-6-3-8-9-1-7z" fill="#040405"/>
<path transform="translate(1015,622)" d="m0 0 4 1 5 6 1 7v17l-1 4-5-1-16-9-1-2 9-15z" fill="#7DD9E7"/>
<path transform="translate(631,1046)" d="m0 0h5l-1 5-10 5-3 3v3l-4 2-5 11-5 19-1 5h-1l-1-5-2 4-3 7-1 5h-1l1-16 5-21 7-14 8-7 8-5z" fill="#33120F"/>
<path transform="translate(668,871)" d="m0 0h13l-3 1-2 4-28 11-15 7-3-1-1-9 5-4 12-5 13-3z" fill="#332542"/>
<path transform="translate(479,1200)" d="m0 0 1 3-5 9-8 7-5 2h-13l-8-4-1-2 4-2 3-5 8-3 12-3 1-1h6l4 1z" fill="#9C202E"/>
<path transform="translate(864,555)" d="m0 0 7 4v2h2l4 13 5 2 2-5h2v12l-2 9-4 11-2 2-1-1-2 3-4-2 2-8v-11l-4-13-6-10-2-2v-4z" fill="#9297A8"/>
<path transform="translate(914,572)" d="m0 0h2v20l-20 15-8 2 6-17 3-7 11-9z" fill="#F1F9FA"/>
<path transform="translate(605,1093)" d="m0 0h1v31l2 16 5 18 3 6-1 2-5-6-4-8h-3l-1 2-4-16-1-10v-18h2l1-9z" fill="#230E12"/>
<path transform="translate(282,1161)" d="m0 0h1l3 16 12 45 11 33 1 5-4-2-7-15-10-27-5-20-2-13z" fill="#322440"/>
<path transform="translate(634,1117)" d="m0 0 2 2 2 5 1 6 5 9 2 5-1 5-5 4-9-2-5-5-6-12 1-4 5 3 2-2 6 11-2-5-4-13 2-5z" fill="#240F12"/>
<path transform="translate(963,1032)" d="m0 0h7l2 2v27l2 9 3 8-1 7-3 6-5 1-7-3 5-29v-21l-1-5z" fill="#D15515"/>
<path transform="translate(561,465)" d="m0 0 2 1 3 7 10 8 10 7 6 2h2l2-6v-7l-3-10 6 5 4 5-1 4-4 19-1 7h-3l-34-34v-7z" fill="#F6FAFB"/>
<path transform="translate(509,400)" d="m0 0 5 2 21 14 9 7-3 1-4-2v-2l-4-2-7-4-8-4-3 1-1 2v9l2 8 5 5 11 7 11 8h5l5-5-1 11-1 8-7-6-11-10-17-13-6-5-1-11z" fill="#EAFBFC"/>
<path transform="translate(701,1014)" d="m0 0h1v8l-8 3-36 8-10 2h-9l-10-6-2-3h9l2-1 24-2h20l15-1 3-1-1-6z" fill="#34243B"/>
<path transform="translate(806,828)" d="m0 0h27v1l-18 1-4 5-1 4 1 2 17 3 23 3 14 5v1h-9l-16-2-38-1 2-16z" fill="#CC5315"/>
<path transform="translate(746,1209)" d="m0 0 7 1 11 6 16 3 7 4 3 3 12 1 9 1-1 2-8 2-7 2h-8l-15-5-11-7-13-11z" fill="#261A31"/>
<path transform="translate(992,1204)" d="m0 0h8l3 7-1 5-12 25-3-1v-8h-7l-2-2 4-8 7-11z" fill="#D32E35"/>
<path transform="translate(704,573)" d="m0 0h2v10l-15 14-11 14-3-3v-10l6-10 11-11z" fill="#858B99"/>
<path transform="translate(792,846)" d="m0 0 2 1 1 10 12 12h-3l3 12v7l-4 13-6 8-7 7-2-1 7-7 4-10 1-5v-11l-3-10-5-6-2-1v-2l-10-3 2-3 5-1 3-9z" fill="#CF5616"/>
<path transform="translate(395,895)" d="m0 0h2l1 9 1 2-4 11-2 12v18l2 31 2 49v10h-1l-4-42-2-30-1-56-1-3 5-9z" fill="#732F12"/>
<path transform="translate(655,557)" d="m0 0h6l3 4-8 6-6 7-5 11-3 14-5-1-2-3v-14l7-14 7-7z" fill="#747985"/>
<path transform="translate(1064,810)" d="m0 0h6l2 1 11-1 2 2 1 3 13 4 1 2-7-1-11-3h-15l-5 13-7 15-8 20-8-2h-6l-4 5-4 9-2 4-1-4 2-9 7-8 6-2 7 1 9-20 8-18 3-9z" fill="#F6B956"/>
<path transform="translate(615,689)" d="m0 0 1 2 6 1 2 3-1 8-7 22-2 3h-2l1 3-3-1-4-8 1-13 4-11z" fill="#9198A7"/>
<path transform="translate(486,864)" d="m0 0h15l4 3 5 2-1 4-1 1-24 1-11 2-2 1h-9l-2-4 8-5 12-4z" fill="#8E8BA2"/>
<path transform="translate(471,423)" d="m0 0 10 3 12 7 4 5 2 5-1 6-4 2-11-8-5-4-6-2-4-5v-6z" fill="#E6FCFD"/>
<path transform="translate(981,945)" d="m0 0 4 2 6 12 3 13v18l-3 17-4 11-3 2-9-1 5-4 4-10 2-8 1-12v-20l-3-14z" fill="#D15515"/>
<path transform="translate(959,549)" d="m0 0 6 1 2 2v6h-3l-5 4-24 13-5-1-1-4 7-8 17-10z" fill="#F6FEFE"/>
<path transform="translate(553,837)" d="m0 0 5 2 16 8 4 1-6 15-2 14-3-4-6-10-8-24z" fill="#FAAD0D"/>
<path transform="translate(435,1151)" d="m0 0h6l5 3 4 7 2 7v18l-4 1-2-1v-2h-2l-5-11-3-10z" fill="#4D3763"/>
<path transform="translate(675,628)" d="m0 0 3 4-9 19-3 11v14l1 3 4 2h-8l-6-5v-8l3-16 5-15 3-1 2-5 5-1z" fill="#3E1D0B"/>
<path transform="translate(472,1167)" d="m0 0 5 1 4 2 2 3v13l-3 3h-7l-10 3-3-2 2-13 3-3h2l2-4z" fill="#D83136"/>
<path transform="translate(424,910)" d="m0 0h8l6 10 3 13 5 19 3 20v12l-3 9-5 6v-3l3-9v-11l-3-17-7-34-4-9-3-4z" fill="#D35917"/>
<path transform="translate(973,645)" d="m0 0 6 1 9 4-1 5h-2l-2 6-9 16h-4l-2-4v-14l3-10z" fill="#7DD9E7"/>
<path transform="translate(831,498)" d="m0 0 3 2 2 8v10l-6 11-5 6-2 4-5-1h-2l1-7 11-27z" fill="#8D8CA1"/>
<path transform="translate(572,1162)" d="m0 0h1v12l-4 11-8 9-7 4-5 3h-6l-1-4 5-9 5-10 1-3v-12l2 1v12l-1 5 5-2 8 1 3-3z" fill="#B82030"/>
<path transform="translate(358,1269)" d="m0 0h1v12l-3 12-5 7-8 4-9 2-12-2v-1l7-2 11-9 8-6 6-7z" fill="#251930"/>
<path transform="translate(726,478)" d="m0 0h12l6 4 3 4v11h-3l-2-6v-4l-5 2-9 1-2 3h-13v-8l8-5z" fill="#838997"/>
<path transform="translate(516,452)" d="m0 0 6 1 6 5 7 9 6 9v3h-7l-12-6-5-5-3-8v-6z" fill="#F7FFFF"/>
<path transform="translate(510,367)" d="m0 0 9 1 6 2v2l-10 1-2 4 1 9 5 6 16 10 10 6 7 1 3-6h2l-2 18-8-6-14-10-19-12-6-4v-21z" fill="#E4F8FA"/>
<path transform="translate(474,1056)" d="m0 0 2 3 3 22 1 4-11 4-4-6-2-10-2-5 1-4h2z" fill="#D05718"/>
<path transform="translate(661,518)" d="m0 0h2v7l2 5 3 4v2h2l2 10 6 7 3 2 7 1-4 2h-17l-3-2-4-11-1-8v-17z" fill="#8F8DA4"/>
<path transform="translate(431,1149)" d="m0 0 3 1 2 6 3 14 5 12v2h2l1 4-1 6-4-1-6-7-5-11-3-11v-10z" fill="#040202"/>
<path transform="translate(563,1157)" d="m0 0 6 1 2-1 1 2v14l-3 7-4 1-6-1-5 1 1-13 4-9z" fill="#D73035"/>
<path transform="translate(428,574)" d="m0 0 10 2 10 3v3l-36 13-3-1 2-4 7-6 7-8z" fill="#C6702D"/>
<path transform="translate(1e3 888)" d="m0 0h6l14 10 7 8 2 3 1 13-5-5-10-12-12-6-3-3z" fill="#88859C"/>
<path transform="translate(423,1249)" d="m0 0h1l1 5v7l-4 8-5 4h-10l-10-6-4-5 2-1 5 2 6-1 4-3h8l5-9z" fill="#261A31"/>
<path transform="translate(430,1172)" d="m0 0 2 3 7 16-1 3-8 4-1 2-5-2-7-15 1-2h2l2-4 8-2z" fill="#D22F35"/>
<path transform="translate(171,752)" d="m0 0h2l1 5 5 11 3 17 4 17-1 3-3-1-9-24-2-10-2-5v-4h-2l-1-4 1-2h2v-2z" fill="#444B51"/>
<path transform="translate(389,1201)" d="m0 0 2 2 5 15v6l-4 5-5 1-8-14-3-6 1-2 2 1 3-3 5-3h2z" fill="#B82030"/>
<path transform="translate(380,1181)" d="m0 0 3 4 6 13v5l-7 4h-2l-1 3-4-2-7-13v-2l4-2 2-4 5-4z" fill="#D22F35"/>
<path transform="translate(704,1199)" d="m0 0 14 3 17 6 8 1-5 5-4 3h-11l-10-5-6-7z" fill="#261A31"/>
<path transform="translate(997,1136)" d="m0 0h10l6 3-4 2-15 6-10 5-13 10-11 9-5 3h-3l9-9 16-14 8-6h2l2-6z" fill="#241014"/>
<path transform="translate(990,927)" d="m0 0 4 1 6 4 4 5 3 11v24l-5-1-2-9-2-14-5-12-3-6z" fill="#F4F5F5"/>
<path transform="translate(1e3 522)" d="m0 0h5l-5 4-10 6-8 7-1 8 13-2 5-2h7v2l-28 11-4 1 1-14 2-9z" fill="#F0FBFC"/>
<path transform="translate(493,365)" d="m0 0h7v20l-6-2-12-5-10-2 4-4 10-5z" fill="#E8F6F8"/>
<path transform="translate(320,1202)" d="m0 0 1 2 1 23-8 3-4 1v-2h-2l-5-16 1-2 1 3h2v-2h2v-2h2l1-2 6 1z" fill="#D12E35"/>
<path transform="translate(1057,443)" d="m0 0 6 1 10 6 9 9-3 1h-16l-10 1 2-12z" fill="#E0F8FA"/>
<path transform="translate(817,1091)" d="m0 0 2 1-1 8-15 43-11 34h-2l-1-4 6-20 10-29 8-21 2-10z" fill="#250F12"/>
<path transform="translate(266,1042)" d="m0 0h6l5 4 2 5-1 7-7 8-3 1-3-7-2-7v-7z" fill="#F01712"/>
<path transform="translate(1e3 620)" d="m0 0h3l-2 5-10 17-5-1-10-4 6-8 9-6z" fill="#7CD6E4"/>
<path transform="translate(923,1056)" d="m0 0h1v22l5 1 1 4-5 5h-10l-8-3-7-1-1-5 7-2 1-3v2l9 1 3 1v2l3-1z" fill="#76371D"/>
<path transform="translate(601,528)" d="m0 0 5 5 8 10 2 5-6-2-5-2-1 4 7 14 2 5-4-1-10-14-2-2v-8l3-13z" fill="#F6F8F9"/>
<path transform="translate(1093,995)" d="m0 0 7 3v12l-3 8-1 3-4-2-7-8v-8l6-7z" fill="#F21712"/>
<path transform="translate(756,1078)" d="m0 0 1 3-8 31-10 28-4 8-2-3v-6h2l2-9 12-35z" fill="#31233F"/>
<path transform="translate(674,908)" d="m0 0h6l4 16v4l-16 1 5-5 2-3v-4l-7-3h-13l-4 1h-8l3-2 7-2z" fill="#F2F2F3"/>
<path transform="translate(671,721)" d="m0 0 5 5 6 5 6 17 4 19v7l-5-1-1-1-1-21-3-9-4-4-9-2 4-1-3-7z" fill="#8F94A2"/>
<path transform="translate(683,983)" d="m0 0h8v10l-2 14 3 1v7h-10l2-12v-8l-2-5-2-2-8-1v-2z" fill="#F5F5F6"/>
<path transform="translate(668,839)" d="m0 0h4l4 10 5 11v2h-11l1-8-3-6-6-3-9 1-13 5-6 1 1-3 16-5 7-2z" fill="#F4F5F6"/>
<path transform="translate(791,1177)" d="m0 0 1 4-2 13 7-2 7-1 7 2 1-2-2 11-1 1-14-1-9-2 2-12z" fill="#B82130"/>
<path transform="translate(419,917)" d="m0 0 5 4 2 5v5l-4 2-3 9-4 14-1 9h-1l-1-19 2-14z" fill="#34243A"/>
<path transform="translate(738,1006)" d="m0 0h1v7h6l1 3-3 7-2 1h-23l-2-2 2-7 13 1 6-2z" fill="#752F12"/>
<path transform="translate(91,764)" d="m0 0 4 1-1 16-3 23-10 9h-30l1-7 2 4h22l8-2v-2l3-3 4-25-1-4-3-8z" fill="#3F464A"/>
<path transform="translate(216,894)" d="m0 0 4 1 4 4 3 15 1 9 1 5-4-1-1-6h-7l1-9-3-8z" fill="#454C52"/>
<path transform="translate(1043,895)" d="m0 0 6 1 35 16 16 8v2l-8-1-15-7-16-6-14-9v-2z" fill="#F8BA59"/>
<path transform="translate(772,844)" d="m0 0h17l3 3-4 2-23 2-17 4-6 2 1-5 6-3 16-4z" fill="#F2F3F4"/>
<path transform="translate(707,653)" d="m0 0 5 3 2 3v6l-6 9-12 14-4 2 1-4 2-4h2l2-4 3-3 2-6-1-3h-2l1-4z" fill="#454C52"/>
<path transform="translate(741,486)" d="m0 0 2 1v6l1 4h2l-1 6-2 5-1 7-2-1-2-9-4-6-3-3-5-2 1-4 1-1 13-1z" fill="#8E8DA3"/>
<path transform="translate(717,1059)" d="m0 0 2 1v5l1 2h-2l1 2v8l-2 13h-3l-4 1-1 2v-17l5-14z" fill="#331211"/>
<path transform="translate(569,1096)" d="m0 0h1l1 18-9 4h-5v-17l2-3 4 1v3h2l1-2 3-1z" fill="#F23044"/>
<path transform="translate(295,1187)" d="m0 0h2l10 36 9 27 3 7-1 4-6-13-6-16-3-6-6-22-3-8z" fill="#250F12"/>
<path transform="translate(1099,1132)" d="m0 0h6l-2 1-1 5-14 36-6 16-2-3 2-8 2-4 4-10 2-13z" fill="#727783"/>
<path transform="translate(962,952)" d="m0 0 2 1-6 9-6 14-4 12-3 6-3 16-2-2v-9l4-17 5-12 7-11z" fill="#D0D7DA"/>
<path transform="translate(717,883)" d="m0 0h1l-1 9-6 21-3 11h-2v-28l9-10z" fill="#342B41"/>
<path transform="translate(509,1168)" d="m0 0 6 1 2 6v6l-10 4-4 2-1-2v-14l1-1h6z" fill="#D63035"/>
<path transform="translate(928,1037)" d="m0 0v3l-4 16-1 23-4 1v-2h-3v-11l4-18 6-10z" fill="#F8F5F3"/>
<path transform="translate(470,384)" d="m0 0 8 1 19 8 3 2v11l-2-2-3-6-10-5-10-3h-12l-4 2 1-5 2-2z" fill="#EAFBFC"/>
<path transform="translate(885,878)" d="m0 0 1 3-5 11-6 19-2 10h-3l-5 2 1-7 11-25z" fill="#F5FCFC"/>
<path transform="translate(982,1171)" d="m0 0 4 1-1 4-2 3h-2l-1-2-10 9-9 10-8 11-4 4v-5l14-19 9-10 7-5z" fill="#250F12"/>
<path transform="translate(183,996)" d="m0 0 2 3 3 9-1 5-8 4-7 2h-12l-9-2 3-2 3 1 16 1 2-5 3-4 2-10 2 1z" fill="#41484D"/>
<path transform="translate(140,602)" d="m0 0 5 1 3 3h7v-2h5v6l-4 5h-10l-5-3-2-2v-6z" fill="#040505"/>
<path transform="translate(782,673)" d="m0 0 2 4 4 9-1 4-1-4-3 1 1 9 3 7-1 5-4-4-6-14v-8l4-6h2z" fill="#454C52"/>
<path transform="translate(753,822)" d="m0 0h22l-3 3-13 5-15 3 1-5 3-5z" fill="#8D8BA2"/>
<path transform="translate(337,1241)" d="m0 0 3 3 3 11-1 9-3 4h-2l-4-5 1-6-2-10 4-4z" fill="#230F12"/>
<path transform="translate(774 1e3)" d="m0 0 2 3 7 9 5 4 3 2 1 5 2 1-10 4-3-1-6-19z" fill="#D05718"/>
<path transform="translate(107,689)" d="m0 0h5l1 1v5l-6 5h-11l-4-4 1-5 11-1z" fill="#080909"/>
<path transform="translate(812,643)" d="m0 0 5 5 4 10v4h2l-1 12h2l-1 5h-2l-1 7-3 1v-21l-5-20z" fill="#3C1D0A"/>
<path transform="translate(950,1176)" d="m0 0 2 1-2 5-11 12-10 15-10 18-2 4-1-4 8-16 8-14 10-12 7-8z" fill="#261011"/>
<path transform="translate(553,837)" d="m0 0 5 2 2 1v2h-2l1 6 3 6 3 2v2l4 2 3 3-2 14-3-4-6-10-8-24z" fill="#F9B62D"/>
<path transform="translate(668,745)" d="m0 0h6l4 6v16l-2 6-2-3 2-14-10-2-7 2 1-4z" fill="#9298A8"/>
<path transform="translate(914,572)" d="m0 0h2v20l-5 3v-9l-3-3-5 3-3 3h-3l1-5 10-8z" fill="#F6FAFB"/>
<path transform="translate(588 1e3)" d="m0 0 4 2 11 27v3h-6l-3-9-6-17-1-5z" fill="#F8F8F8"/>
<path transform="translate(567,450)" d="m0 0 4 1 9 12 1 5h-10l-3-3-2-6v-8z" fill="#E7FDFE"/>
<path transform="translate(1167,883)" d="m0 0 1 4-3 11-2 9-3 5h-5l-1-8 5-9 7-10z" fill="#FE9549"/>
<path transform="translate(322,1224)" d="m0 0h1l2 12h-3l-1 2-4 4-1 2h-3l-4-11 1-4v2l8-4h4z" fill="#B92030"/>
<path transform="translate(493,1066)" d="m0 0h1l1 6 7-5-3 9-6 9-1 1-1 12v10l1 9-2-1-2-7v-14l1-6h-3l3-5 3-11z" fill="#28192D"/>
<path transform="translate(693,790)" d="m0 0h1l2 20v7l-4-2-8-3 1-5 6-13z" fill="#F8AB16"/>
<path transform="translate(987,1060)" d="m0 0 2 1-1 8-3 14-3 7-4 3h-6l2-6 4-9 5 1 3-6h-2l1-8z" fill="#F7F7F7"/>
<path transform="translate(404,1133)" d="m0 0h5l3 2-1 7v16l-5-3-4-13 1-8z" fill="#240F12"/>
<path transform="translate(929,521)" d="m0 0h3v20l1 2 8 1v2l-12 7h-2v-12l1-19z" fill="#FBFCFC"/>
<path transform="translate(631,1092)" d="m0 0 1 4v21l2 1-4 2-1 4 4 13 3 7h-2l-7-14-1-4v-12l3-17z" fill="#2F213C"/>
<path transform="translate(1118,908)" d="m0 0 6 2 10 6 11 6-2 6-5-1-4-2-3-3-3-2-1-5h-4v-2l-4-1z" fill="#99212B"/>
<path transform="translate(777,504)" d="m0 0 4 2 6 7-2 2-1-1-7 1-9 4 1 2h-13l1-4 5-4 13-2 7-1z" fill="#8F8EA4"/>
<path transform="translate(235,595)" d="m0 0h17l2 2-1 5-5 2h-8l-5-3z" fill="#020203"/>
<path transform="translate(801,517)" d="m0 0 1 3-1 4v14l-2 13-4 9v2h-3l-2 4-6 1 1-7 1 2h5l2-9 5-13v-18z" fill="#908EA5"/>
<path transform="translate(143,865)" d="m0 0 2 3 2 10-13 8-12 11h-8l-8-4v-1l7 1 8 1 11-10 7-4h2l-1-7z" fill="#3B4144"/>
<path transform="translate(186,807)" d="m0 0 6 5v2l3 1 1 3v7l-3 3-7-3v-4l-1-12z" fill="#454B52"/>
<path transform="translate(909,1144)" d="m0 0 16 2 10 3v2l2 1h-11l-18-1v-6z" fill="#31233F"/>
<path transform="translate(659,656)" d="m0 0 3 1 3 15 2 7 4 2h-8l-6-5v-8z" fill="#351311"/>
<path transform="translate(138,677)" d="m0 0 2 1v2l8 5 6 11 5 15 4 23 11-11v3l-11 11-3-1-3-22-4-15-6-11-3-3-3-1v-2l-3-1z" fill="#642812"/>
<path transform="translate(1e3 1144)" d="m0 0 6 1 5 5-2 4-6 1-8-3-2-4-2-1z" fill="#E92232"/>
<path transform="translate(854,1104)" d="m0 0h33v1h-27l-1 8h-4l-3 10-1 2-4-1 1-6 4-7z" fill="#26121B"/>
<path transform="translate(394,1215)" d="m0 0 2 3v6l-4 5-5 1-5-8 1-2 2 1 1-4 1-1z" fill="#9C202E"/>
<path transform="translate(681,617)" d="m0 0 6 2-6 8-2 4-4-1-6 4-1 2-2-1 6-11h2l2-5z" fill="#331212"/>
<path transform="translate(940,1037)" d="m0 0h15l3 2v7l-1-3-7 1h-15l4-6z" fill="#261A30"/>
<path transform="translate(196,618)" d="m0 0 5 2 7 6 8 10 9 12 3 10-1 17-4 3 1-11v-18h-2v-3h-2l-2-5h-2l-1-4-3-1-1-3-4-4v-2l-4-2-3-2v-2l-4-1z" fill="#652A10"/>
<path transform="translate(703,493)" d="m0 0h2l2 18v11h-1l-1-5h-5l-2-7 1-8 1-2 4 1z" fill="#6C717D"/>
<path transform="translate(328,1206)" d="m0 0 4 1 9 6 6 1-5 5h-7l-4-2-2 2-1-4z" fill="#31233F"/>
<path transform="translate(864,555)" d="m0 0 7 4v2h2l4 13 1 2-4-2-4-5h-3l-6-8v-4z" fill="#908EA5"/>
<path transform="translate(588,448)" d="m0 0 4 2 7 5 4-1 1-5 4 2v7l-2 9-7-6-11-11z" fill="#E8F9FB"/>
<path transform="translate(970,924)" d="m0 0h5l-5 5-10 9-7 9-2-4 2-5 11-11z" fill="#CE5815"/>
<path transform="translate(546,1155)" d="m0 0 4 2 4 8v10l-4 10-2 3h-3l3-9 1-4v-10z" fill="#250F12"/>
<path transform="translate(972,841)" d="m0 0 4 1 4 4v2l6 1 7 7 2 1v2h2l1 11-2 1-3-6v-3h-2l-7-9-6-5-4-5z" fill="#F2AB27"/>
<path transform="translate(881,1136)" d="m0 0h3l-1 10-10 22-5 10h-2l1-5 8-16 5-15v-5z" fill="#200D0F"/>
<path transform="translate(770,1066)" d="m0 0 9 1 2 1v5l-4 2-4 1v2l-3 1v-2l-3 1 1-7z" fill="#F21713"/>
<path transform="translate(569,401)" d="m0 0 4 1 12 13 8 11-1 3-3-3-1-3-5-5-7-8-2-2-6 1-2 1v-6z" fill="#ECF4F5"/>
<path transform="translate(880,589)" d="m0 0 2 1v9l-3 6-2-1-2 3-4-2 3-13 5-2z" fill="#8E8DA3"/>
<path transform="translate(800,623)" d="m0 0 5 3 14 7 2 6v6l-2-3-5-5-3-2v-2l-6-1-6-6z" fill="#231014"/>
<path transform="translate(695,610)" d="m0 0 10 1-1 2-7 1-9 5-7-1-5 2-2 4-2-1 4-7 6-2 4-2z" fill="#251115"/>
<path transform="translate(1100,921)" d="m0 0 5 1 19 9-4 1-5-1-26-1v-1h13l1-5-3-1z" fill="#EEAB4D"/>
<path transform="translate(147,886)" d="m0 0h3l3 10-8-2h-5l-13 13-1 2h-2l2-5 11-11z" fill="#40474A"/>
<path transform="translate(1006,953)" d="m0 0h1v19l-5-1-2-9v-7z" fill="#F7FEFE"/>
<path transform="translate(708,1080)" d="m0 0h1v13l-3 23-2-4-2-1 1-11z" fill="#271B33"/>
<path transform="translate(658,736)" d="m0 0 7 1-5 4-8 8-1 8h-1v-7h-2l-1-5 2-3v2l2-1 1-4 2-2z" fill="#9097A6"/>
<path transform="translate(717,1059)" d="m0 0 2 1v5l1 2h-2l1 2v8h-2v-2l-6 2-1-4 5-12z" fill="#220F14"/>
<path transform="translate(726,1064)" d="m0 0 6 1 5 3v5l-2 1-2-2-7-1-5 1-3-3v-2z" fill="#E61814"/>
<path transform="translate(1142,1025)" d="m0 0h6v5l-4 4-11 1v-4z" fill="#E11919"/>
<path transform="translate(218,1070)" d="m0 0 7 3 7 6-1 2-12-1-3-4v-5z" fill="#E51816"/>
<path transform="translate(849,1212)" d="m0 0 1 2-5 10 4-1 3 1h8l3-1 5 2 2-2-1 6-4 1-22-5 1-5z" fill="#9C202E"/>
<path transform="translate(449,1147)" d="m0 0 4 2 5 10 3 11v6l-2 1-3-11-5-12-2-4z" fill="#240F12"/>
<path transform="translate(928,1037)" d="m0 0v3l-4 16-2 7h-4v-7l4-11z" fill="#F5F9F8"/>
<path transform="translate(266,597)" d="m0 0 4 1 1 7h2l3 9 3 1-1 5-7 8-4 8-1-3 6-10 4-7-8-14h-2l-2 2 1-6z" fill="#5F2710"/>
<path transform="translate(305,788)" d="m0 0 2 2 11 32 1 7h-2l-3-9-4-10-3-9-2-8z" fill="#51585D"/>
<path transform="translate(1155,818)" d="m0 0h2l5 9 2 4 4 2 7 4-4 2-6-3v-2l-4-1-6-10-3-2v-2z" fill="#F4B556"/>
<path transform="translate(501,1070)" d="m0 0h1v14l1 2-2 6-5-1-1-6 5-13z" fill="#230F12"/>
<path transform="translate(1157,914)" d="m0 0 4 1 1 3-10 23-3 1 1-5 4-10 2-4-1-7z" fill="#F3AF41"/>
<path transform="translate(457,397)" d="m0 0 5 5 7 3 8 4v2l-21-4v-7z" fill="#E9FBFD"/>
<path transform="translate(482,412)" d="m0 0 7 1 4 2 5-1 3-1v11l-4-2-15-8z" fill="#E9FAFC"/>
<path transform="translate(428,571)" d="m0 0 4 1 7 3 11 2-1 5-1-3-17-4-4 1-7 6-7 8v-3l6-8 8-7z" fill="#622911"/>
<path transform="translate(831,498)" d="m0 0 3 2 2 8v10l-2-4-1-3-4-1-2 3h-2l3-9z" fill="#878D9C"/>
<path transform="translate(986,1053)" d="m0 0 2 3 1 5h-2l-3 12h2l-2 7-4-1-1-4z" fill="#F6FEFE"/>
<path transform="translate(804,595)" d="m0 0h5l6 5 3 2h-5v2l-7 1-5-7v-2z" fill="#878B9B"/>
<path transform="translate(1062,468)" d="m0 0h18l9 3v4h-6l-7-3-5-2-10 1z" fill="#DDF6F9"/>
<path transform="translate(947,980)" d="m0 0 1 4-4 15-2 11-2-2v-9l4-16 3-1z" fill="#FBFDFD"/>
<path transform="translate(455,858)" d="m0 0h6l1 6-6 2v2l-4-1-5-6 6 1z" fill="#5A5E68"/>
<path transform="translate(881,839)" d="m0 0 9 1 20 7-4 2-5-1-18-6z" fill="#E0E4E7"/>
<path transform="translate(52,806)" d="m0 0 2 4h22l6-1-1 4h-30z" fill="#393E40"/>
<path transform="translate(142,677)" d="m0 0h10l3 4 1 5h2l2 9 4 2 1 3 10-1-3 3h-6l-5-3-10-19-9-2z" fill="#732F12"/>
<path transform="translate(123,909)" d="m0 0 1 3-4 8-4 16v31h-1l-2-16 1-20 3-11z" fill="#3C4147"/>
<path transform="translate(687,753)" d="m0 0 2 1 3 13v7l-5-1-1-1z" fill="#888D96"/>
<path transform="translate(490,366)" d="m0 0 2 1 4 5-1 4h-6l-4-4v-3l-2-1z" fill="#DFF4F5"/>
<path transform="translate(196,607)" d="m0 0 12 1 12 11 8 7 6 5v2l-5-2-15-15-7-6h-6l-4-1-2-1z" fill="#632911"/>
<path transform="translate(517,654)" d="m0 0 4 4-3 7-6 11h-1l1-8 4-13z" fill="#F4B953"/>
<path transform="translate(348,586)" d="m0 0h15l2 7 3 4 5 9-1 4-3-1h2l-5-9-4-8v-4h-11l-2-1-1 3z" fill="#672C15"/>
<path transform="translate(1071,451)" d="m0 0 4 1 7 7-3 1-12-1v-3z" fill="#F5FDFD"/>
<path transform="translate(823,685)" d="m0 0h1v7l-2 7-8 2-3-2 4-6 5-1z" fill="#241014"/>
<path transform="translate(681,499)" d="m0 0h2v7h-2l-1 6-2-3-3 4h-2l1-7 5-6z" fill="#8C8DA1"/>
<path transform="translate(759,1156)" d="m0 0h6l-6 8-9 10h-3l2-4 9-12z" fill="#250F12"/>
<path transform="translate(825,674)" d="m0 0 1 2-1 11-3 2-3 5-3-1 1-6 2-1 2-7h2z" fill="#341313"/>
<path transform="translate(539,1130)" d="m0 0 7 2 8 7-2 2-5-1-9-6z" fill="#240F13"/>
<path transform="translate(96,927)" d="m0 0 3 4 6 6v5l-6 2-4-13z" fill="#3D4347"/>
<path transform="translate(308,909)" d="m0 0h3l5 17v5l-2-1-5-11-2-7z" fill="#42484E"/>
<path transform="translate(498,642)" d="m0 0 5 2 4 3-1 5-5 4-3-10z" fill="#6CA633"/>
<path transform="translate(705,1116)" d="m0 0 2 2-1 3 3-1v8l1 3-1 8-3-1-1-3z" fill="#020102"/>
<path transform="translate(818,491)" d="m0 0h7l-2 6-3 4-1-1-2 2-3-2 2-6z" fill="#7B808E"/>
<path transform="translate(658,667)" d="m0 0 2 1 1 5 4 1 2 5 4 2h-8l-6-5v-8z" fill="#251014"/>
<path transform="translate(379,1257)" d="m0 0 2 1-5 10h-7l-5-4 10-2z" fill="#261A31"/>
<path transform="translate(968,1163)" d="m0 0 2 1-17 16-9 11-6 5 2-4 10-11 7-8z" fill="#B12330"/>
<path transform="translate(527,975)" d="m0 0 2 2 3 19v14l-2-2-2-19z" fill="#BDC8CE"/>
<path transform="translate(953,1038)" d="m0 0 5 1v7l-1-3-7 1h-15v-1l9-1 3-1 1-2z" fill="#33253F"/>
<path transform="translate(1094,795)" d="m0 0 4 2 7 8 5 4-1 3-7-4-4-7-7-3v-2z" fill="#F4B555"/>
<path transform="translate(834,1240)" d="m0 0h11l17 4v1l-14 1-7-2v-2l-7-1z" fill="#251930"/>
<path transform="translate(678,1174)" d="m0 0 7 1-3 8-3 1-4-3 1-6z" fill="#B72030"/>
<path transform="translate(428,1024)" d="m0 0h1l1 5 10-1 5 3v3l-3-2-6 2-3-2-4 1-2 1z" fill="#291A29"/>
<path transform="translate(717,883)" d="m0 0h1l-1 9-3 11h-2l-1-5 1-4-1-4z" fill="#3C3E49"/>
<path transform="translate(549,1091)" d="m0 0 3 1 4 8 1 4v7l-3-2-5-15z" fill="#240F11"/>
<path transform="translate(633,1077)" d="m0 0h3l1 8h-2v-4l-5 3-4 6h-2l1-6 2-4z" fill="#250F12"/>
<path transform="translate(625,1045)" d="m0 0h14v1l-12 2-12 8-4 3 2-4 5-6z" fill="#291C35"/>
<path transform="translate(614,1177)" d="m0 0 7 6 6 3h22l-2 2-5 1h-12l-11-4-5-6z" fill="#2B1E38"/>
<path transform="translate(297,1154)" d="m0 0 6 2 1 2-3 3-6 1-3-1v6h-1v-7l5-5z" fill="#DD2130"/>
<path transform="translate(343,1135)" d="m0 0 6 1 1 2h-2l-1 4-1 1-8 1 1-5z" fill="#E82232"/>
<path transform="translate(143,865)" d="m0 0 2 3 2 10-3 2h-3l-1-7z" fill="#41474C"/>
<path transform="translate(892,598)" d="m0 0 5 2 3 4-6 4-6 1z" fill="#DDE0E3"/>
<path transform="translate(976,496)" d="m0 0h2l-1 10-2 3-3-5-3-2h-2v-2z" fill="#E3F8FA"/>
<path transform="translate(459,1181)" d="m0 0h1v8l-5 6h-9v-5l1 2 7-1z" fill="#240F12"/>
<path transform="translate(987,1060)" d="m0 0 2 1-1 8-3 14-2 5-1-4 4-11h-2l1-8z" fill="#B4BFC4"/>
<path transform="translate(626,1114)" d="m0 0h1l3 15 4 9 2 6h-2l-7-14-1-4z" fill="#2C1F39"/>
<path transform="translate(681,479)" d="m0 0 4 1 2 2v5l-4 1-4-4-5 2 5-6z" fill="#898C9E"/>
<path transform="translate(962,1157)" d="m0 0 2 1-25 25v-3l13-14 8-7z" fill="#2F1C2D"/>
<path transform="translate(877,1154)" d="m0 0 1 3-10 21h-2l1-5 8-16z" fill="#070302"/>
<path transform="translate(224,650)" d="m0 0h2l2 8-1 17-4 3 1-11z" fill="#5C2710"/>
<path transform="translate(339,1246)" d="m0 0 3 4 1 10-2 6h-2z" fill="#010102"/>
<path transform="translate(526,1174)" d="m0 0 4 4 4 5 4 3-1 1h-6l-3-2z" fill="#312440"/>
<path transform="translate(1047,762)" d="m0 0h1v9l-2 7h-4l1-7z" fill="#F3AC30"/>
<path transform="translate(500,453)" d="m0 0 3 1v8h-4l-5-5z" fill="#E3EFF2"/>
<path transform="translate(552,386)" d="m0 0 4 1 1 2v14h-2l-3-12z" fill="#F4FDFD"/>
<path transform="translate(1038,873)" d="m0 0 9 3 11 5-4 1-9-4-10 1 2-5z" fill="#7A2324"/>
<path transform="translate(950,1203)" d="m0 0v3l-7 15-3 9-1 9h-1v-10l4-14 7-11z" fill="#A1202E"/>
<path transform="translate(291,1148)" d="m0 0h4l-1 5-3 8-2-1-1-10z" fill="#220E12"/>
<path transform="translate(525,972)" d="m0 0 2 3 2 14v9h-1l-4-17z" fill="#F0FCFD"/>
<path transform="translate(937,1123)" d="m0 0h8l13 4-1 5h-2l-2-3-9-3-7-2z" fill="#E21A19"/>
<path transform="translate(490,1090)" d="m0 0h1v18l1 9-2-1-2-7v-14z" fill="#261A31"/>
<path transform="translate(831,820)" d="m0 0h13l15 2 4 3-10-1-22-3z" fill="#2E213B"/>
<path transform="translate(885,881)" d="m0 0 1 2-8 25h-2l1-7 7-19z" fill="#61626E"/>
<path transform="translate(801,517)" d="m0 0 1 3-1 4v14l-2 5-1-3v-18z" fill="#918FA6"/>
<path transform="translate(199,887)" d="m0 0 5 1v6l-3 3h-3l-1-5z" fill="#F5A911"/>
<path transform="translate(880,798)" d="m0 0 2 2-2 2-13-1-12-1v-1z" fill="#F0A429"/>
<path transform="translate(266,597)" d="m0 0 4 1 1 7h2l3 9-3-3-5-9h-2l-2 2 1-6z" fill="#652A10"/>
<path transform="translate(703,494)" d="m0 0h1v7l-4-1-1 6-6-1 6-7z" fill="#878D9B"/>
<path transform="translate(1087,1171)" d="m0 0 1 3-6 16-2-3 2-8 2-4z" fill="#747985"/>
<path transform="translate(707,909)" d="m0 0 3 1v8l-2 6h-2v-12z" fill="#383944"/>
<path transform="translate(191,837)" d="m0 0 5 1 1 7-4-2-8-1 4-4z" fill="#454C52"/>
<path transform="translate(978,545)" d="m0 0 3 4 2 5-5 3h-2l1-11z" fill="#FCFDFD"/>
<path transform="translate(1044,488)" d="m0 0 4 5 2 1v2l-10 3 3-9z" fill="#E6F6F8"/>
<path transform="translate(717,1059)" d="m0 0 2 1v5l1 2h-2l1 5-1-2-5-2 2-7z" fill="#2C1216"/>
<path transform="translate(73,954)" d="m0 0 8 2-6 8h-2z" fill="#42494E"/>
<path transform="translate(273,896)" d="m0 0 3 1-2 5-8 1-3 2h-5l3-2z" fill="#EEA012"/>
<path transform="translate(652,843)" d="m0 0 3 1h-2v2l-13 5-6 1 1-3 16-5z" fill="#D2D4DA"/>
<path transform="translate(263,636)" d="m0 0 3 1-10 6-7 6h-2l-1 4-1-3 5-6z" fill="#5E2710"/>
<path transform="translate(790,627)" d="m0 0v3l-3 14-3-1 1-9 2-5z" fill="#271011"/>
<path transform="translate(544,425)" d="m0 0 4 1 6 5v5l-3 1z" fill="#E4F5F8"/>
<path transform="translate(1137,919)" d="m0 0 7 2 1 3-2 4-5-1v-6z" fill="#B3222E"/>
<path transform="translate(311,804)" d="m0 0 2 3 5 15 1 7h-2l-5-15z" fill="#4D5658"/>
<path transform="translate(1046,780)" d="m0 0 3 4 2 9-4-1-3-5v-6z" fill="#FE9549"/>
<path transform="translate(984,513)" d="m0 0 7 4v2l-6 3h-3l1-7z" fill="#E8FBFC"/>
<path transform="translate(563,420)" d="m0 0h3l4 11 1 2-5-2-3-3z" fill="#D7F3F7"/>
<path transform="translate(669,618)" d="m0 0h2l1 7-3 6h-3l1-9z" fill="#8E8EA3"/>
<path transform="translate(1032,526)" d="m0 0 4 4-1 4-6 2v-5z" fill="#F1F9FA"/>
<path transform="translate(987,614)" d="m0 0 2 1-13 10-6 2-1-2 15-9z" fill="#F1AA32"/>
<path transform="translate(1019,531)" d="m0 0 1 3-1 7-7 1 3-7 4-2z" fill="#EDF9FA"/>
<path transform="translate(1056,451)" d="m0 0 3 4 2 5-8 1 1-6z" fill="#F0FDFD"/>
<path transform="translate(885,878)" d="m0 0 1 3-5 11-2 3-2-1 1-5z" fill="#F3FCFD"/>
<path transform="translate(677,751)" d="m0 0h1v16l-2 6-2-3 2-16z" fill="#848A97"/>
<path transform="translate(1050,470)" d="m0 0h9l-10 8h-1v-6z" fill="#E2F8FA"/>
<path transform="translate(634,1117)" d="m0 0 2 2v5l-7 1-1-3 4-4z" fill="#311110"/>
<path transform="translate(790,982)" d="m0 0 2 2 4 18-1 3-5-16z" fill="#72787E"/>
<path transform="translate(947,980)" d="m0 0 1 4-3 10h-2l-1-5 3-7h2z" fill="#F7FDFD"/>
<path transform="translate(1157,914)" d="m0 0 4 1 1 3-3 7-2-2-2-7z" fill="#F8B128"/>
<path transform="translate(604,871)" d="m0 0 1 2 2 12 1 8-2-2-3-10-2-6h2z" fill="#913C14"/>
<path transform="translate(187,852)" d="m0 0 2 4-2 4-7-1v-3z" fill="#F9AB0F"/>
<path transform="translate(403,1152)" d="m0 0 2 1 3 20-3-3-2-9z" fill="#240F12"/>
<path transform="translate(181,901)" d="m0 0 4 2 4 4-4 3h-3z" fill="#F9AE13"/>
<path transform="translate(78,895)" d="m0 0 4 1 2 5-6-1-1 7h-2l1-9z" fill="#3A4042"/>
<path transform="translate(1024,884)" d="m0 0 12 6-1 2-7-2 3 3-1 2-6-7z" fill="#EF9D1F"/>
<path transform="translate(553,837)" d="m0 0 5 2 2 1v2h-2l1 9h-2l-4-12z" fill="#F3AD2B"/>
<path transform="translate(89,791)" d="m0 0h1v14l-8 6v-3h2v-2l3-3z" fill="#40464B"/>
<path transform="translate(716,522)" d="m0 0 2 1 2 5-1 10-2 4z" fill="#8F95A4"/>
<path transform="translate(992,470)" d="m0 0 5 5-2 4-5 1 1-7z" fill="#E9F9FB"/>
<path transform="translate(633,1137)" d="m0 0h3l2 2 2 4-1 4-4-1v-3z" fill="#341210"/>
<path transform="translate(91,782)" d="m0 0h2l-1 13-1 9h-1v-21z" fill="#363B3C"/>
<path transform="translate(687,753)" d="m0 0 2 1 1 10h-2v6l-2 1z" fill="#9B9FA9"/>
<path transform="translate(648,742)" d="m0 0 1 2h4l-1 5-1 8h-1v-7h-2l-1-5z" fill="#9699A3"/>
<path transform="translate(703,595)" d="m0 0 2 2-1 6-8 1v-2l5-5z" fill="#4F575B"/>
<path transform="translate(161,675)" d="m0 0h6v11l-3-4-1-4h-2z" fill="#6AA236"/>
<path transform="translate(252,624)" d="m0 0 1 2-4 6-4 3-7 1-4-3h10l5-4z" fill="#662B13"/>
<path transform="translate(560,1118)" d="m0 0 3 1 1 4-1 2 2 1h-8l2-1-1-6z" fill="#211016"/>
<path transform="translate(610,604)" d="m0 0 2 1-5 3-10 2h-6l1-3h9z" fill="#383E3F"/>
<path transform="translate(509,400)" d="m0 0 5 2 1 2-4 3-1 12h-1z" fill="#C3F0F6"/>
<path transform="translate(791,1177)" d="m0 0 1 4-2 13-2 6h-2l2-12z" fill="#A5202E"/>
<path transform="translate(511,1056)" d="m0 0m-1 1m-1 1 3 2-8 6-7 5 2-4z" fill="#30223E"/>
<path transform="translate(653,911)" d="m0 0h8l-1 2-9 2h-8l3-2z" fill="#D9D9DD"/>
<path transform="translate(614,469)" d="m0 0 2 1 3 9-1 4-5-7z" fill="#E4EBEE"/>
<path transform="translate(1043,441)" d="m0 0h5l-1 9h-2l-2-4z" fill="#E9FBFD"/>
<path transform="translate(345,1191)" d="m0 0h1v13l-1 2-5-2-1-2 5-1z" fill="#BC2430"/>
<path transform="translate(1118,908)" d="m0 0 6 2 6 4-3 2-4-1v-2l-4-1z" fill="#7F2229"/>
<path transform="translate(138,894)" d="m0 0m-1 1m-1 1m-3 1 3 1-9 9-1 2h-2l2-5z" fill="#414B49"/>
<path transform="translate(112,805)" d="m0 0 11 1 2 4-5-2h-18l3-2z" fill="#393F42"/>
<path transform="translate(159,695)" d="m0 0 4 1 2 4 10-1-3 3h-6l-5-3z" fill="#642B13"/>
<path transform="translate(921,632)" d="m0 0v3l-5 4-4-1v-3l1-1 7-1z" fill="#ACADB4"/>
<path transform="translate(918,511)" d="m0 0h2v6l-8 5 2-5z" fill="#D7E7EB"/>
<path transform="translate(753,961)" d="m0 0 2 3 2 11-5-2v-6h2z" fill="#2C1920"/>
<path transform="translate(346,592)" d="m0 0v3l-5 9v2l-4-1 2-5z" fill="#6B2C11"/>
<path transform="translate(651,509)" d="m0 0 1 3-2 13h-3l2-13z" fill="#171A1B"/>
<path transform="translate(403,1134)" d="m0 0h5l-3 9-3-1z" fill="#010102"/>
<path transform="translate(972,875)" d="m0 0h1l-1 9-5 11-1-4z" fill="#767B83"/>
<path transform="translate(922,1216)" d="m0 0 1 3-6 12-1-4 5-10z" fill="#260F12"/>
<path transform="translate(962,952)" d="m0 0 2 1-6 9-2 4-1-4 2-4z" fill="#B8CBD2"/>
<path transform="translate(901,871)" d="m0 0 2 2v5h-5l-4 8-1-3 3-6 4-1z" fill="#331F27"/>
<path transform="translate(193,609)" d="m0 0 2 1-4 4 5 4-9-1 1-4z" fill="#5B270F"/>
<path transform="translate(1036,473)" d="m0 0h3l-1 6-5-1-1-4z" fill="#DEF6F9"/>
<path transform="translate(459,415)" d="m0 0 9 2-2 1-2 4-2 1-3-6z" fill="#DBEEF2"/>
<path transform="translate(950,1181)" d="m0 0 2 1-13 14v-3z" fill="#BC2732"/>
<path transform="translate(683,1179)" d="m0 0 4 1 1 3h2v3h-3v-2l-5-1z" fill="#241015"/>
<path transform="translate(101,916)" d="m0 0 4 2 2 2v5l-4-2-2-4z" fill="#2A2F2A"/>
<path transform="translate(1021,887)" d="m0 0 4 2 7 7 3 4-1 2-8-9-5-5z" fill="#512311"/>
<path transform="translate(640,877)" d="m0 0 3 1-7 4-1 2-6 2 2-4z" fill="#261A31"/>
<path transform="translate(916,620)" d="m0 0 4 2 2 4-4 1-3-3v-2l-2-1z" fill="#918FA6"/>
<path transform="translate(252,595)" d="m0 0 6 1-2 5-3 6-1-3-4-1 5-2z" fill="#2F3531"/>
<path transform="translate(930,502)" d="m0 0 6 3-1 3-5 2z" fill="#F4FCFC"/>
<path transform="translate(505,1165)" d="m0 0h8l2 3h-12z" fill="#230F13"/>
<path transform="translate(438,1092)" d="m0 0h1v7l-4 6-5 2v-3l6-4z" fill="#30223E"/>
<path transform="translate(625,1045)" d="m0 0h14v1l-12 2-5 2 1-4z" fill="#2D203A"/>
<path transform="translate(928,1037)" d="m0 0v3l-3 10-3-2 1-5z" fill="#E6EAEC"/>
<path transform="translate(123,909)" d="m0 0 1 3-4 8-2 6-2-1 1-5z" fill="#3A4042"/>
<path transform="translate(550,455)" d="m0 0h1v9l-5-4 1-4z" fill="#E9F9FB"/>
<path transform="translate(965,1270)" d="m0 0h2l4 7h-3v-2l-3 1-3-2z" fill="#241014"/>
<path transform="translate(928,1206)" d="m0 0 1 3-5 9-2-4z" fill="#2A1110"/>
<path transform="translate(958,937)" d="m0 0v3l-5 7-2-4 1-2z" fill="#AB4514"/>
<path transform="translate(455,858)" d="m0 0h6v3l-4 2h-5z" fill="#5D686A"/>
<path transform="translate(670,745)" d="m0 0 5 1 2 3-1 4-2-4-4-1z" fill="#A6A8AE"/>
<path transform="translate(283,717)" d="m0 0 2 1 4 11-1 3-3-3-2-10z" fill="#4B5356"/>
<path transform="translate(138,677)" d="m0 0 2 1v2l8 5 2 5-6-5-3-1v-2l-3-1z" fill="#742F12"/>
<path transform="translate(692,579)" d="m0 0 3 1-9 9h-2l2-4z" fill="#8D8EA2"/>
<path transform="translate(735,492)" d="m0 0h4v5l-3 1-3-2v-3z" fill="#949BAB"/>
<path transform="translate(626,1114)" d="m0 0h1l2 10v7l-2-1-1-4z" fill="#2B1E37"/>
<path transform="translate(171,813)" d="m0 0 6 1-3 5-4-1z" fill="#FCB00C"/>
<path transform="translate(402,1142)" d="m0 0 2 4 2 5-1 4-1-2-2 1z" fill="#341210"/>
<path transform="translate(1098,1131)" d="m0 0 4 1h-3l-3 9-1 2h-2l3-9z" fill="#646473"/>
<path transform="translate(430,1111)" d="m0 0h8v2l2 1h-10z" fill="#261A31"/>
<path transform="translate(94,811)" d="m0 0 2 1-10 10-2-1 5-6z" fill="#404A48"/>
<path transform="translate(686,745)" d="m0 0 2 3-1 16h-1l-1-16z" fill="#565964"/>
<path transform="translate(341,606)" d="m0 0 6 2 9 6-3 1-12-7z" fill="#592511"/>
<path transform="translate(1024,513)" d="m0 0h2l-1 5-2 2-4-4z" fill="#EFFDFE"/>
<path transform="translate(700,480)" d="m0 0h3l-1 4-4 4h-2l1-4z" fill="#6C737C"/>
<path transform="translate(565,396)" d="m0 0 4 2 2 3-5 3-1-2z" fill="#E5F7FA"/>
<path transform="translate(314,1247)" d="m0 0 2 3 3 7-1 4-5-10z" fill="#291111"/>
<path transform="translate(852,1202)" d="m0 0 1 4-5 9h-2l2-6z" fill="#291111"/>
<path transform="translate(578,1155)" d="m0 0 2 2 2 8v5l-2-3-2-5z" fill="#030203"/>
<path transform="translate(525,972)" d="m0 0 2 4v13l-2-4-1-7z" fill="#F9FDFD"/>
<path transform="translate(821,893)" d="m0 0 1 3-2 7-2 4-3 1 2-5z" fill="#6F737B"/>
<path transform="translate(755,846)" d="m0 0h6v1l-16 4 1-3z" fill="#45434E"/>
<path transform="translate(215,638)" d="m0 0 4 2 6 8-1 2-2-1v-3h-2l-2-5h-2z" fill="#6F2D11"/>
</svg>
